<mxfile host="app.diagrams.net" modified="2023-11-03T07:55:11.568Z" agent="Mozilla/5.0 (Macintosh; Intel Mac OS X 10_15_7) AppleWebKit/537.36 (KHTML, like Gecko) Chrome/118.0.0.0 Safari/537.36" etag="rTq-b2vtTOa9mXRY7HJF" version="22.0.8" type="github">
  <diagram name="第 1 页" id="vVpCZfDv8el2wT4L0e3R">
    <mxGraphModel dx="1578" dy="2037" grid="1" gridSize="10" guides="1" tooltips="1" connect="1" arrows="1" fold="1" page="1" pageScale="1" pageWidth="827" pageHeight="1169" math="0" shadow="0">
      <root>
        <mxCell id="0" />
        <mxCell id="1" parent="0" />
        <mxCell id="cYiCLH4inrJGbYnhFq96-80" value="" style="group" vertex="1" connectable="0" parent="1">
          <mxGeometry x="74" y="20" width="160" height="170" as="geometry" />
        </mxCell>
        <mxCell id="cYiCLH4inrJGbYnhFq96-45" value="" style="edgeStyle=none;orthogonalLoop=1;jettySize=auto;html=1;rounded=0;endArrow=none;endFill=0;strokeWidth=4;" edge="1" parent="cYiCLH4inrJGbYnhFq96-80">
          <mxGeometry width="80" relative="1" as="geometry">
            <mxPoint as="sourcePoint" />
            <mxPoint y="170" as="targetPoint" />
            <Array as="points" />
          </mxGeometry>
        </mxCell>
        <mxCell id="cYiCLH4inrJGbYnhFq96-47" value="" style="edgeStyle=none;orthogonalLoop=1;jettySize=auto;html=1;rounded=0;endArrow=none;endFill=0;strokeWidth=4;" edge="1" parent="cYiCLH4inrJGbYnhFq96-80">
          <mxGeometry width="80" relative="1" as="geometry">
            <mxPoint x="160" as="sourcePoint" />
            <mxPoint x="160" y="170" as="targetPoint" />
            <Array as="points" />
          </mxGeometry>
        </mxCell>
        <mxCell id="cYiCLH4inrJGbYnhFq96-48" value="" style="edgeStyle=none;orthogonalLoop=1;jettySize=auto;html=1;rounded=0;endArrow=none;endFill=0;strokeWidth=4;" edge="1" parent="cYiCLH4inrJGbYnhFq96-80">
          <mxGeometry width="80" relative="1" as="geometry">
            <mxPoint y="170" as="sourcePoint" />
            <mxPoint x="160" y="170" as="targetPoint" />
            <Array as="points" />
          </mxGeometry>
        </mxCell>
        <mxCell id="cYiCLH4inrJGbYnhFq96-49" value="" style="edgeStyle=none;orthogonalLoop=1;jettySize=auto;html=1;rounded=0;endArrow=none;endFill=0;strokeWidth=4;" edge="1" parent="cYiCLH4inrJGbYnhFq96-80">
          <mxGeometry width="80" relative="1" as="geometry">
            <mxPoint x="50" as="sourcePoint" />
            <mxPoint as="targetPoint" />
            <Array as="points" />
          </mxGeometry>
        </mxCell>
        <mxCell id="cYiCLH4inrJGbYnhFq96-50" value="" style="edgeStyle=none;orthogonalLoop=1;jettySize=auto;html=1;rounded=0;endArrow=none;endFill=0;strokeWidth=4;" edge="1" parent="cYiCLH4inrJGbYnhFq96-80">
          <mxGeometry width="80" relative="1" as="geometry">
            <mxPoint x="160" as="sourcePoint" />
            <mxPoint x="110" as="targetPoint" />
            <Array as="points" />
          </mxGeometry>
        </mxCell>
        <mxCell id="cYiCLH4inrJGbYnhFq96-51" value="" style="edgeStyle=none;orthogonalLoop=1;jettySize=auto;html=1;rounded=0;endArrow=none;endFill=0;strokeWidth=4;" edge="1" parent="cYiCLH4inrJGbYnhFq96-80">
          <mxGeometry width="80" relative="1" as="geometry">
            <mxPoint x="50" as="sourcePoint" />
            <mxPoint x="50" y="90" as="targetPoint" />
            <Array as="points" />
          </mxGeometry>
        </mxCell>
        <mxCell id="cYiCLH4inrJGbYnhFq96-52" value="" style="edgeStyle=none;orthogonalLoop=1;jettySize=auto;html=1;rounded=0;endArrow=none;endFill=0;strokeWidth=4;" edge="1" parent="cYiCLH4inrJGbYnhFq96-80">
          <mxGeometry width="80" relative="1" as="geometry">
            <mxPoint x="110" as="sourcePoint" />
            <mxPoint x="110" y="90" as="targetPoint" />
            <Array as="points" />
          </mxGeometry>
        </mxCell>
        <mxCell id="cYiCLH4inrJGbYnhFq96-53" value="" style="edgeStyle=none;orthogonalLoop=1;jettySize=auto;html=1;rounded=0;endArrow=none;endFill=0;strokeWidth=4;" edge="1" parent="cYiCLH4inrJGbYnhFq96-80">
          <mxGeometry width="80" relative="1" as="geometry">
            <mxPoint x="110" y="90" as="sourcePoint" />
            <mxPoint x="50" y="90" as="targetPoint" />
            <Array as="points" />
          </mxGeometry>
        </mxCell>
        <mxCell id="cYiCLH4inrJGbYnhFq96-81" value="" style="group" vertex="1" connectable="0" parent="1">
          <mxGeometry x="44" y="265" width="210" height="220" as="geometry" />
        </mxCell>
        <mxCell id="cYiCLH4inrJGbYnhFq96-54" value="" style="edgeStyle=none;orthogonalLoop=1;jettySize=auto;html=1;rounded=0;endArrow=none;endFill=0;strokeWidth=4;" edge="1" parent="cYiCLH4inrJGbYnhFq96-81">
          <mxGeometry width="80" relative="1" as="geometry">
            <mxPoint y="50" as="sourcePoint" />
            <mxPoint y="220" as="targetPoint" />
            <Array as="points" />
          </mxGeometry>
        </mxCell>
        <mxCell id="cYiCLH4inrJGbYnhFq96-55" value="" style="edgeStyle=none;orthogonalLoop=1;jettySize=auto;html=1;rounded=0;endArrow=none;endFill=0;strokeWidth=4;" edge="1" parent="cYiCLH4inrJGbYnhFq96-81">
          <mxGeometry width="80" relative="1" as="geometry">
            <mxPoint x="210" y="70" as="sourcePoint" />
            <mxPoint x="210" y="220" as="targetPoint" />
            <Array as="points" />
          </mxGeometry>
        </mxCell>
        <mxCell id="cYiCLH4inrJGbYnhFq96-56" value="" style="edgeStyle=none;orthogonalLoop=1;jettySize=auto;html=1;rounded=0;endArrow=none;endFill=0;strokeWidth=4;" edge="1" parent="cYiCLH4inrJGbYnhFq96-81">
          <mxGeometry width="80" relative="1" as="geometry">
            <mxPoint y="220" as="sourcePoint" />
            <mxPoint x="210" y="220" as="targetPoint" />
            <Array as="points" />
          </mxGeometry>
        </mxCell>
        <mxCell id="cYiCLH4inrJGbYnhFq96-57" value="" style="edgeStyle=none;orthogonalLoop=1;jettySize=auto;html=1;rounded=0;endArrow=none;endFill=0;strokeWidth=4;" edge="1" parent="cYiCLH4inrJGbYnhFq96-81">
          <mxGeometry width="80" relative="1" as="geometry">
            <mxPoint x="50" y="50" as="sourcePoint" />
            <mxPoint y="50" as="targetPoint" />
            <Array as="points" />
          </mxGeometry>
        </mxCell>
        <mxCell id="cYiCLH4inrJGbYnhFq96-58" value="" style="edgeStyle=none;orthogonalLoop=1;jettySize=auto;html=1;rounded=0;endArrow=none;endFill=0;strokeWidth=4;" edge="1" parent="cYiCLH4inrJGbYnhFq96-81">
          <mxGeometry width="80" relative="1" as="geometry">
            <mxPoint x="120" as="sourcePoint" />
            <mxPoint x="80" as="targetPoint" />
            <Array as="points" />
          </mxGeometry>
        </mxCell>
        <mxCell id="cYiCLH4inrJGbYnhFq96-59" value="" style="edgeStyle=none;orthogonalLoop=1;jettySize=auto;html=1;rounded=0;endArrow=none;endFill=0;strokeWidth=4;" edge="1" parent="cYiCLH4inrJGbYnhFq96-81">
          <mxGeometry width="80" relative="1" as="geometry">
            <mxPoint x="50" y="50" as="sourcePoint" />
            <mxPoint x="50" y="140" as="targetPoint" />
            <Array as="points" />
          </mxGeometry>
        </mxCell>
        <mxCell id="cYiCLH4inrJGbYnhFq96-60" value="" style="edgeStyle=none;orthogonalLoop=1;jettySize=auto;html=1;rounded=0;endArrow=none;endFill=0;strokeWidth=4;" edge="1" parent="cYiCLH4inrJGbYnhFq96-81">
          <mxGeometry width="80" relative="1" as="geometry">
            <mxPoint x="80" as="sourcePoint" />
            <mxPoint x="80" y="140" as="targetPoint" />
            <Array as="points" />
          </mxGeometry>
        </mxCell>
        <mxCell id="cYiCLH4inrJGbYnhFq96-61" value="" style="edgeStyle=none;orthogonalLoop=1;jettySize=auto;html=1;rounded=0;endArrow=none;endFill=0;strokeWidth=4;" edge="1" parent="cYiCLH4inrJGbYnhFq96-81">
          <mxGeometry width="80" relative="1" as="geometry">
            <mxPoint x="80" y="140" as="sourcePoint" />
            <mxPoint x="50" y="140" as="targetPoint" />
            <Array as="points" />
          </mxGeometry>
        </mxCell>
        <mxCell id="cYiCLH4inrJGbYnhFq96-62" value="" style="edgeStyle=none;orthogonalLoop=1;jettySize=auto;html=1;rounded=0;endArrow=none;endFill=0;strokeWidth=4;" edge="1" parent="cYiCLH4inrJGbYnhFq96-81">
          <mxGeometry width="80" relative="1" as="geometry">
            <mxPoint x="120" as="sourcePoint" />
            <mxPoint x="120" y="140" as="targetPoint" />
            <Array as="points" />
          </mxGeometry>
        </mxCell>
        <mxCell id="cYiCLH4inrJGbYnhFq96-63" value="" style="edgeStyle=none;orthogonalLoop=1;jettySize=auto;html=1;rounded=0;endArrow=none;endFill=0;strokeWidth=4;" edge="1" parent="cYiCLH4inrJGbYnhFq96-81">
          <mxGeometry width="80" relative="1" as="geometry">
            <mxPoint x="160" y="70" as="sourcePoint" />
            <mxPoint x="160" y="140" as="targetPoint" />
            <Array as="points" />
          </mxGeometry>
        </mxCell>
        <mxCell id="cYiCLH4inrJGbYnhFq96-64" value="" style="edgeStyle=none;orthogonalLoop=1;jettySize=auto;html=1;rounded=0;endArrow=none;endFill=0;strokeWidth=4;" edge="1" parent="cYiCLH4inrJGbYnhFq96-81">
          <mxGeometry width="80" relative="1" as="geometry">
            <mxPoint x="160" y="140" as="sourcePoint" />
            <mxPoint x="120" y="140" as="targetPoint" />
            <Array as="points" />
          </mxGeometry>
        </mxCell>
        <mxCell id="cYiCLH4inrJGbYnhFq96-65" value="" style="edgeStyle=none;orthogonalLoop=1;jettySize=auto;html=1;rounded=0;endArrow=none;endFill=0;strokeWidth=4;" edge="1" parent="cYiCLH4inrJGbYnhFq96-81">
          <mxGeometry width="80" relative="1" as="geometry">
            <mxPoint x="210" y="70" as="sourcePoint" />
            <mxPoint x="160" y="70" as="targetPoint" />
            <Array as="points" />
          </mxGeometry>
        </mxCell>
        <mxCell id="cYiCLH4inrJGbYnhFq96-82" value="" style="group" vertex="1" connectable="0" parent="1">
          <mxGeometry x="44" y="600" width="160" height="220" as="geometry" />
        </mxCell>
        <mxCell id="cYiCLH4inrJGbYnhFq96-66" value="" style="edgeStyle=none;orthogonalLoop=1;jettySize=auto;html=1;rounded=0;endArrow=none;endFill=0;strokeWidth=4;" edge="1" parent="cYiCLH4inrJGbYnhFq96-82">
          <mxGeometry width="80" relative="1" as="geometry">
            <mxPoint as="sourcePoint" />
            <mxPoint y="220" as="targetPoint" />
            <Array as="points" />
          </mxGeometry>
        </mxCell>
        <mxCell id="cYiCLH4inrJGbYnhFq96-67" value="" style="edgeStyle=none;orthogonalLoop=1;jettySize=auto;html=1;rounded=0;endArrow=none;endFill=0;strokeWidth=4;" edge="1" parent="cYiCLH4inrJGbYnhFq96-82">
          <mxGeometry width="80" relative="1" as="geometry">
            <mxPoint x="160" as="sourcePoint" />
            <mxPoint x="160" y="220" as="targetPoint" />
            <Array as="points" />
          </mxGeometry>
        </mxCell>
        <mxCell id="cYiCLH4inrJGbYnhFq96-69" value="" style="edgeStyle=none;orthogonalLoop=1;jettySize=auto;html=1;rounded=0;endArrow=none;endFill=0;strokeWidth=4;" edge="1" parent="cYiCLH4inrJGbYnhFq96-82">
          <mxGeometry width="80" relative="1" as="geometry">
            <mxPoint x="50" as="sourcePoint" />
            <mxPoint as="targetPoint" />
            <Array as="points" />
          </mxGeometry>
        </mxCell>
        <mxCell id="cYiCLH4inrJGbYnhFq96-70" value="" style="edgeStyle=none;orthogonalLoop=1;jettySize=auto;html=1;rounded=0;endArrow=none;endFill=0;strokeWidth=4;" edge="1" parent="cYiCLH4inrJGbYnhFq96-82">
          <mxGeometry width="80" relative="1" as="geometry">
            <mxPoint x="160" as="sourcePoint" />
            <mxPoint x="110" as="targetPoint" />
            <Array as="points" />
          </mxGeometry>
        </mxCell>
        <mxCell id="cYiCLH4inrJGbYnhFq96-71" value="" style="edgeStyle=none;orthogonalLoop=1;jettySize=auto;html=1;rounded=0;endArrow=none;endFill=0;strokeWidth=4;" edge="1" parent="cYiCLH4inrJGbYnhFq96-82">
          <mxGeometry width="80" relative="1" as="geometry">
            <mxPoint x="50" as="sourcePoint" />
            <mxPoint x="50" y="90" as="targetPoint" />
            <Array as="points" />
          </mxGeometry>
        </mxCell>
        <mxCell id="cYiCLH4inrJGbYnhFq96-72" value="" style="edgeStyle=none;orthogonalLoop=1;jettySize=auto;html=1;rounded=0;endArrow=none;endFill=0;strokeWidth=4;" edge="1" parent="cYiCLH4inrJGbYnhFq96-82">
          <mxGeometry width="80" relative="1" as="geometry">
            <mxPoint x="110" as="sourcePoint" />
            <mxPoint x="110" y="90" as="targetPoint" />
            <Array as="points" />
          </mxGeometry>
        </mxCell>
        <mxCell id="cYiCLH4inrJGbYnhFq96-73" value="" style="edgeStyle=none;orthogonalLoop=1;jettySize=auto;html=1;rounded=0;endArrow=none;endFill=0;strokeWidth=4;" edge="1" parent="cYiCLH4inrJGbYnhFq96-82">
          <mxGeometry width="80" relative="1" as="geometry">
            <mxPoint x="110" y="90" as="sourcePoint" />
            <mxPoint x="50" y="90" as="targetPoint" />
            <Array as="points" />
          </mxGeometry>
        </mxCell>
        <mxCell id="cYiCLH4inrJGbYnhFq96-79" value="" style="group;rotation=-180;" vertex="1" connectable="0" parent="cYiCLH4inrJGbYnhFq96-82">
          <mxGeometry y="130" width="160" height="90" as="geometry" />
        </mxCell>
        <mxCell id="cYiCLH4inrJGbYnhFq96-74" value="" style="edgeStyle=none;orthogonalLoop=1;jettySize=auto;html=1;rounded=0;endArrow=none;endFill=0;strokeWidth=4;" edge="1" parent="cYiCLH4inrJGbYnhFq96-79">
          <mxGeometry width="80" relative="1" as="geometry">
            <mxPoint x="110" y="90" as="sourcePoint" />
            <mxPoint x="160" y="90" as="targetPoint" />
            <Array as="points" />
          </mxGeometry>
        </mxCell>
        <mxCell id="cYiCLH4inrJGbYnhFq96-75" value="" style="edgeStyle=none;orthogonalLoop=1;jettySize=auto;html=1;rounded=0;endArrow=none;endFill=0;strokeWidth=4;" edge="1" parent="cYiCLH4inrJGbYnhFq96-79">
          <mxGeometry width="80" relative="1" as="geometry">
            <mxPoint y="90" as="sourcePoint" />
            <mxPoint x="50" y="90" as="targetPoint" />
            <Array as="points" />
          </mxGeometry>
        </mxCell>
        <mxCell id="cYiCLH4inrJGbYnhFq96-76" value="" style="edgeStyle=none;orthogonalLoop=1;jettySize=auto;html=1;rounded=0;endArrow=none;endFill=0;strokeWidth=4;" edge="1" parent="cYiCLH4inrJGbYnhFq96-79">
          <mxGeometry width="80" relative="1" as="geometry">
            <mxPoint x="110" y="90" as="sourcePoint" />
            <mxPoint x="110" as="targetPoint" />
            <Array as="points" />
          </mxGeometry>
        </mxCell>
        <mxCell id="cYiCLH4inrJGbYnhFq96-77" value="" style="edgeStyle=none;orthogonalLoop=1;jettySize=auto;html=1;rounded=0;endArrow=none;endFill=0;strokeWidth=4;" edge="1" parent="cYiCLH4inrJGbYnhFq96-79">
          <mxGeometry width="80" relative="1" as="geometry">
            <mxPoint x="50" y="90" as="sourcePoint" />
            <mxPoint x="50" as="targetPoint" />
            <Array as="points" />
          </mxGeometry>
        </mxCell>
        <mxCell id="cYiCLH4inrJGbYnhFq96-78" value="" style="edgeStyle=none;orthogonalLoop=1;jettySize=auto;html=1;rounded=0;endArrow=none;endFill=0;strokeWidth=4;" edge="1" parent="cYiCLH4inrJGbYnhFq96-79">
          <mxGeometry width="80" relative="1" as="geometry">
            <mxPoint x="50" as="sourcePoint" />
            <mxPoint x="110" as="targetPoint" />
            <Array as="points" />
          </mxGeometry>
        </mxCell>
        <mxCell id="cYiCLH4inrJGbYnhFq96-85" value="" style="endArrow=none;dashed=1;html=1;strokeWidth=2;rounded=0;fillColor=#f8cecc;strokeColor=#ff0000;" edge="1" parent="cYiCLH4inrJGbYnhFq96-82">
          <mxGeometry width="50" height="50" relative="1" as="geometry">
            <mxPoint x="-20" y="40" as="sourcePoint" />
            <mxPoint x="80" y="40" as="targetPoint" />
          </mxGeometry>
        </mxCell>
        <mxCell id="cYiCLH4inrJGbYnhFq96-83" value="" style="endArrow=none;html=1;strokeWidth=2;rounded=0;fillColor=#f8cecc;strokeColor=#ff0000;dashed=1;" edge="1" parent="1">
          <mxGeometry width="50" height="50" relative="1" as="geometry">
            <mxPoint x="34" y="70" as="sourcePoint" />
            <mxPoint x="154" y="70" as="targetPoint" />
          </mxGeometry>
        </mxCell>
        <mxCell id="cYiCLH4inrJGbYnhFq96-84" value="" style="endArrow=none;dashed=1;html=1;strokeWidth=2;rounded=0;fillColor=#f8cecc;strokeColor=#ff0000;" edge="1" parent="1">
          <mxGeometry width="50" height="50" relative="1" as="geometry">
            <mxPoint x="14" y="365" as="sourcePoint" />
            <mxPoint x="114" y="365" as="targetPoint" />
          </mxGeometry>
        </mxCell>
        <mxCell id="cYiCLH4inrJGbYnhFq96-105" value="" style="group" vertex="1" connectable="0" parent="1">
          <mxGeometry x="344" y="20" width="160" height="170" as="geometry" />
        </mxCell>
        <mxCell id="cYiCLH4inrJGbYnhFq96-106" value="" style="edgeStyle=none;orthogonalLoop=1;jettySize=auto;html=1;rounded=0;endArrow=none;endFill=0;strokeWidth=4;" edge="1" parent="cYiCLH4inrJGbYnhFq96-105">
          <mxGeometry width="80" relative="1" as="geometry">
            <mxPoint as="sourcePoint" />
            <mxPoint y="170" as="targetPoint" />
            <Array as="points" />
          </mxGeometry>
        </mxCell>
        <mxCell id="cYiCLH4inrJGbYnhFq96-107" value="" style="edgeStyle=none;orthogonalLoop=1;jettySize=auto;html=1;rounded=0;endArrow=none;endFill=0;strokeWidth=4;" edge="1" parent="cYiCLH4inrJGbYnhFq96-105">
          <mxGeometry width="80" relative="1" as="geometry">
            <mxPoint x="160" as="sourcePoint" />
            <mxPoint x="160" y="170" as="targetPoint" />
            <Array as="points" />
          </mxGeometry>
        </mxCell>
        <mxCell id="cYiCLH4inrJGbYnhFq96-108" value="" style="edgeStyle=none;orthogonalLoop=1;jettySize=auto;html=1;rounded=0;endArrow=none;endFill=0;strokeWidth=4;" edge="1" parent="cYiCLH4inrJGbYnhFq96-105">
          <mxGeometry width="80" relative="1" as="geometry">
            <mxPoint y="170" as="sourcePoint" />
            <mxPoint x="160" y="170" as="targetPoint" />
            <Array as="points" />
          </mxGeometry>
        </mxCell>
        <mxCell id="cYiCLH4inrJGbYnhFq96-109" value="" style="edgeStyle=none;orthogonalLoop=1;jettySize=auto;html=1;rounded=0;endArrow=none;endFill=0;strokeWidth=4;" edge="1" parent="cYiCLH4inrJGbYnhFq96-105">
          <mxGeometry width="80" relative="1" as="geometry">
            <mxPoint x="50" as="sourcePoint" />
            <mxPoint as="targetPoint" />
            <Array as="points" />
          </mxGeometry>
        </mxCell>
        <mxCell id="cYiCLH4inrJGbYnhFq96-110" value="" style="edgeStyle=none;orthogonalLoop=1;jettySize=auto;html=1;rounded=0;endArrow=none;endFill=0;strokeWidth=4;" edge="1" parent="cYiCLH4inrJGbYnhFq96-105">
          <mxGeometry width="80" relative="1" as="geometry">
            <mxPoint x="160" as="sourcePoint" />
            <mxPoint x="110" as="targetPoint" />
            <Array as="points" />
          </mxGeometry>
        </mxCell>
        <mxCell id="cYiCLH4inrJGbYnhFq96-111" value="" style="edgeStyle=none;orthogonalLoop=1;jettySize=auto;html=1;rounded=0;endArrow=none;endFill=0;strokeWidth=4;" edge="1" parent="cYiCLH4inrJGbYnhFq96-105">
          <mxGeometry width="80" relative="1" as="geometry">
            <mxPoint x="50" as="sourcePoint" />
            <mxPoint x="50" y="90" as="targetPoint" />
            <Array as="points" />
          </mxGeometry>
        </mxCell>
        <mxCell id="cYiCLH4inrJGbYnhFq96-112" value="" style="edgeStyle=none;orthogonalLoop=1;jettySize=auto;html=1;rounded=0;endArrow=none;endFill=0;strokeWidth=4;" edge="1" parent="cYiCLH4inrJGbYnhFq96-105">
          <mxGeometry width="80" relative="1" as="geometry">
            <mxPoint x="110" as="sourcePoint" />
            <mxPoint x="110" y="90" as="targetPoint" />
            <Array as="points" />
          </mxGeometry>
        </mxCell>
        <mxCell id="cYiCLH4inrJGbYnhFq96-113" value="" style="edgeStyle=none;orthogonalLoop=1;jettySize=auto;html=1;rounded=0;endArrow=none;endFill=0;strokeWidth=4;" edge="1" parent="cYiCLH4inrJGbYnhFq96-105">
          <mxGeometry width="80" relative="1" as="geometry">
            <mxPoint x="110" y="90" as="sourcePoint" />
            <mxPoint x="50" y="90" as="targetPoint" />
            <Array as="points" />
          </mxGeometry>
        </mxCell>
        <mxCell id="cYiCLH4inrJGbYnhFq96-114" value="" style="group" vertex="1" connectable="0" parent="1">
          <mxGeometry x="604" y="20" width="160" height="170" as="geometry" />
        </mxCell>
        <mxCell id="cYiCLH4inrJGbYnhFq96-115" value="" style="edgeStyle=none;orthogonalLoop=1;jettySize=auto;html=1;rounded=0;endArrow=none;endFill=0;strokeWidth=4;" edge="1" parent="cYiCLH4inrJGbYnhFq96-114">
          <mxGeometry width="80" relative="1" as="geometry">
            <mxPoint as="sourcePoint" />
            <mxPoint y="170" as="targetPoint" />
            <Array as="points" />
          </mxGeometry>
        </mxCell>
        <mxCell id="cYiCLH4inrJGbYnhFq96-116" value="" style="edgeStyle=none;orthogonalLoop=1;jettySize=auto;html=1;rounded=0;endArrow=none;endFill=0;strokeWidth=4;" edge="1" parent="cYiCLH4inrJGbYnhFq96-114">
          <mxGeometry width="80" relative="1" as="geometry">
            <mxPoint x="160" as="sourcePoint" />
            <mxPoint x="160" y="170" as="targetPoint" />
            <Array as="points" />
          </mxGeometry>
        </mxCell>
        <mxCell id="cYiCLH4inrJGbYnhFq96-117" value="" style="edgeStyle=none;orthogonalLoop=1;jettySize=auto;html=1;rounded=0;endArrow=none;endFill=0;strokeWidth=4;" edge="1" parent="cYiCLH4inrJGbYnhFq96-114">
          <mxGeometry width="80" relative="1" as="geometry">
            <mxPoint y="170" as="sourcePoint" />
            <mxPoint x="160" y="170" as="targetPoint" />
            <Array as="points" />
          </mxGeometry>
        </mxCell>
        <mxCell id="cYiCLH4inrJGbYnhFq96-118" value="" style="edgeStyle=none;orthogonalLoop=1;jettySize=auto;html=1;rounded=0;endArrow=none;endFill=0;strokeWidth=4;" edge="1" parent="cYiCLH4inrJGbYnhFq96-114">
          <mxGeometry width="80" relative="1" as="geometry">
            <mxPoint x="50" as="sourcePoint" />
            <mxPoint as="targetPoint" />
            <Array as="points" />
          </mxGeometry>
        </mxCell>
        <mxCell id="cYiCLH4inrJGbYnhFq96-119" value="" style="edgeStyle=none;orthogonalLoop=1;jettySize=auto;html=1;rounded=0;endArrow=none;endFill=0;strokeWidth=4;" edge="1" parent="cYiCLH4inrJGbYnhFq96-114">
          <mxGeometry width="80" relative="1" as="geometry">
            <mxPoint x="160" as="sourcePoint" />
            <mxPoint x="110" as="targetPoint" />
            <Array as="points" />
          </mxGeometry>
        </mxCell>
        <mxCell id="cYiCLH4inrJGbYnhFq96-120" value="" style="edgeStyle=none;orthogonalLoop=1;jettySize=auto;html=1;rounded=0;endArrow=none;endFill=0;strokeWidth=4;" edge="1" parent="cYiCLH4inrJGbYnhFq96-114">
          <mxGeometry width="80" relative="1" as="geometry">
            <mxPoint x="50" as="sourcePoint" />
            <mxPoint x="50" y="90" as="targetPoint" />
            <Array as="points" />
          </mxGeometry>
        </mxCell>
        <mxCell id="cYiCLH4inrJGbYnhFq96-121" value="" style="edgeStyle=none;orthogonalLoop=1;jettySize=auto;html=1;rounded=0;endArrow=none;endFill=0;strokeWidth=4;" edge="1" parent="cYiCLH4inrJGbYnhFq96-114">
          <mxGeometry width="80" relative="1" as="geometry">
            <mxPoint x="110" as="sourcePoint" />
            <mxPoint x="110" y="90" as="targetPoint" />
            <Array as="points" />
          </mxGeometry>
        </mxCell>
        <mxCell id="cYiCLH4inrJGbYnhFq96-122" value="" style="edgeStyle=none;orthogonalLoop=1;jettySize=auto;html=1;rounded=0;endArrow=none;endFill=0;strokeWidth=4;" edge="1" parent="cYiCLH4inrJGbYnhFq96-114">
          <mxGeometry width="80" relative="1" as="geometry">
            <mxPoint x="110" y="90" as="sourcePoint" />
            <mxPoint x="50" y="90" as="targetPoint" />
            <Array as="points" />
          </mxGeometry>
        </mxCell>
        <mxCell id="cYiCLH4inrJGbYnhFq96-124" value="" style="endArrow=none;html=1;strokeWidth=2;rounded=0;fillColor=#f8cecc;strokeColor=#ff0000;dashed=1;" edge="1" parent="cYiCLH4inrJGbYnhFq96-114">
          <mxGeometry width="50" height="50" relative="1" as="geometry">
            <mxPoint x="200" y="60" as="sourcePoint" />
            <mxPoint x="-30" y="60" as="targetPoint" />
          </mxGeometry>
        </mxCell>
        <mxCell id="cYiCLH4inrJGbYnhFq96-123" value="" style="endArrow=none;html=1;strokeWidth=2;rounded=0;fillColor=#f8cecc;strokeColor=#ff0000;dashed=1;" edge="1" parent="1">
          <mxGeometry width="50" height="50" relative="1" as="geometry">
            <mxPoint x="434" as="sourcePoint" />
            <mxPoint x="404" y="210" as="targetPoint" />
          </mxGeometry>
        </mxCell>
        <mxCell id="cYiCLH4inrJGbYnhFq96-139" value="" style="group" vertex="1" connectable="0" parent="1">
          <mxGeometry x="313" y="265" width="210" height="220" as="geometry" />
        </mxCell>
        <mxCell id="cYiCLH4inrJGbYnhFq96-140" value="" style="edgeStyle=none;orthogonalLoop=1;jettySize=auto;html=1;rounded=0;endArrow=none;endFill=0;strokeWidth=4;" edge="1" parent="cYiCLH4inrJGbYnhFq96-139">
          <mxGeometry width="80" relative="1" as="geometry">
            <mxPoint y="50" as="sourcePoint" />
            <mxPoint y="220" as="targetPoint" />
            <Array as="points" />
          </mxGeometry>
        </mxCell>
        <mxCell id="cYiCLH4inrJGbYnhFq96-141" value="" style="edgeStyle=none;orthogonalLoop=1;jettySize=auto;html=1;rounded=0;endArrow=none;endFill=0;strokeWidth=4;" edge="1" parent="cYiCLH4inrJGbYnhFq96-139">
          <mxGeometry width="80" relative="1" as="geometry">
            <mxPoint x="210" y="70" as="sourcePoint" />
            <mxPoint x="210" y="220" as="targetPoint" />
            <Array as="points" />
          </mxGeometry>
        </mxCell>
        <mxCell id="cYiCLH4inrJGbYnhFq96-142" value="" style="edgeStyle=none;orthogonalLoop=1;jettySize=auto;html=1;rounded=0;endArrow=none;endFill=0;strokeWidth=4;" edge="1" parent="cYiCLH4inrJGbYnhFq96-139">
          <mxGeometry width="80" relative="1" as="geometry">
            <mxPoint y="220" as="sourcePoint" />
            <mxPoint x="210" y="220" as="targetPoint" />
            <Array as="points" />
          </mxGeometry>
        </mxCell>
        <mxCell id="cYiCLH4inrJGbYnhFq96-143" value="" style="edgeStyle=none;orthogonalLoop=1;jettySize=auto;html=1;rounded=0;endArrow=none;endFill=0;strokeWidth=4;" edge="1" parent="cYiCLH4inrJGbYnhFq96-139">
          <mxGeometry width="80" relative="1" as="geometry">
            <mxPoint x="50" y="50" as="sourcePoint" />
            <mxPoint y="50" as="targetPoint" />
            <Array as="points" />
          </mxGeometry>
        </mxCell>
        <mxCell id="cYiCLH4inrJGbYnhFq96-144" value="" style="edgeStyle=none;orthogonalLoop=1;jettySize=auto;html=1;rounded=0;endArrow=none;endFill=0;strokeWidth=4;" edge="1" parent="cYiCLH4inrJGbYnhFq96-139">
          <mxGeometry width="80" relative="1" as="geometry">
            <mxPoint x="120" as="sourcePoint" />
            <mxPoint x="80" as="targetPoint" />
            <Array as="points" />
          </mxGeometry>
        </mxCell>
        <mxCell id="cYiCLH4inrJGbYnhFq96-145" value="" style="edgeStyle=none;orthogonalLoop=1;jettySize=auto;html=1;rounded=0;endArrow=none;endFill=0;strokeWidth=4;" edge="1" parent="cYiCLH4inrJGbYnhFq96-139">
          <mxGeometry width="80" relative="1" as="geometry">
            <mxPoint x="50" y="50" as="sourcePoint" />
            <mxPoint x="50" y="140" as="targetPoint" />
            <Array as="points" />
          </mxGeometry>
        </mxCell>
        <mxCell id="cYiCLH4inrJGbYnhFq96-146" value="" style="edgeStyle=none;orthogonalLoop=1;jettySize=auto;html=1;rounded=0;endArrow=none;endFill=0;strokeWidth=4;" edge="1" parent="cYiCLH4inrJGbYnhFq96-139">
          <mxGeometry width="80" relative="1" as="geometry">
            <mxPoint x="80" as="sourcePoint" />
            <mxPoint x="80" y="140" as="targetPoint" />
            <Array as="points" />
          </mxGeometry>
        </mxCell>
        <mxCell id="cYiCLH4inrJGbYnhFq96-147" value="" style="edgeStyle=none;orthogonalLoop=1;jettySize=auto;html=1;rounded=0;endArrow=none;endFill=0;strokeWidth=4;" edge="1" parent="cYiCLH4inrJGbYnhFq96-139">
          <mxGeometry width="80" relative="1" as="geometry">
            <mxPoint x="80" y="140" as="sourcePoint" />
            <mxPoint x="50" y="140" as="targetPoint" />
            <Array as="points" />
          </mxGeometry>
        </mxCell>
        <mxCell id="cYiCLH4inrJGbYnhFq96-148" value="" style="edgeStyle=none;orthogonalLoop=1;jettySize=auto;html=1;rounded=0;endArrow=none;endFill=0;strokeWidth=4;" edge="1" parent="cYiCLH4inrJGbYnhFq96-139">
          <mxGeometry width="80" relative="1" as="geometry">
            <mxPoint x="120" as="sourcePoint" />
            <mxPoint x="120" y="140" as="targetPoint" />
            <Array as="points" />
          </mxGeometry>
        </mxCell>
        <mxCell id="cYiCLH4inrJGbYnhFq96-149" value="" style="edgeStyle=none;orthogonalLoop=1;jettySize=auto;html=1;rounded=0;endArrow=none;endFill=0;strokeWidth=4;" edge="1" parent="cYiCLH4inrJGbYnhFq96-139">
          <mxGeometry width="80" relative="1" as="geometry">
            <mxPoint x="160" y="70" as="sourcePoint" />
            <mxPoint x="160" y="140" as="targetPoint" />
            <Array as="points" />
          </mxGeometry>
        </mxCell>
        <mxCell id="cYiCLH4inrJGbYnhFq96-150" value="" style="edgeStyle=none;orthogonalLoop=1;jettySize=auto;html=1;rounded=0;endArrow=none;endFill=0;strokeWidth=4;" edge="1" parent="cYiCLH4inrJGbYnhFq96-139">
          <mxGeometry width="80" relative="1" as="geometry">
            <mxPoint x="160" y="140" as="sourcePoint" />
            <mxPoint x="120" y="140" as="targetPoint" />
            <Array as="points" />
          </mxGeometry>
        </mxCell>
        <mxCell id="cYiCLH4inrJGbYnhFq96-151" value="" style="edgeStyle=none;orthogonalLoop=1;jettySize=auto;html=1;rounded=0;endArrow=none;endFill=0;strokeWidth=4;" edge="1" parent="cYiCLH4inrJGbYnhFq96-139">
          <mxGeometry width="80" relative="1" as="geometry">
            <mxPoint x="210" y="70" as="sourcePoint" />
            <mxPoint x="160" y="70" as="targetPoint" />
            <Array as="points" />
          </mxGeometry>
        </mxCell>
        <mxCell id="cYiCLH4inrJGbYnhFq96-152" value="" style="endArrow=none;dashed=1;html=1;strokeWidth=2;rounded=0;fillColor=#f8cecc;strokeColor=#ff0000;" edge="1" parent="1">
          <mxGeometry width="50" height="50" relative="1" as="geometry">
            <mxPoint x="404" y="240" as="sourcePoint" />
            <mxPoint x="404" y="520" as="targetPoint" />
          </mxGeometry>
        </mxCell>
        <mxCell id="cYiCLH4inrJGbYnhFq96-153" value="" style="group" vertex="1" connectable="0" parent="1">
          <mxGeometry x="579" y="265" width="210" height="220" as="geometry" />
        </mxCell>
        <mxCell id="cYiCLH4inrJGbYnhFq96-154" value="" style="edgeStyle=none;orthogonalLoop=1;jettySize=auto;html=1;rounded=0;endArrow=none;endFill=0;strokeWidth=4;" edge="1" parent="cYiCLH4inrJGbYnhFq96-153">
          <mxGeometry width="80" relative="1" as="geometry">
            <mxPoint y="50" as="sourcePoint" />
            <mxPoint y="220" as="targetPoint" />
            <Array as="points" />
          </mxGeometry>
        </mxCell>
        <mxCell id="cYiCLH4inrJGbYnhFq96-155" value="" style="edgeStyle=none;orthogonalLoop=1;jettySize=auto;html=1;rounded=0;endArrow=none;endFill=0;strokeWidth=4;" edge="1" parent="cYiCLH4inrJGbYnhFq96-153">
          <mxGeometry width="80" relative="1" as="geometry">
            <mxPoint x="210" y="70" as="sourcePoint" />
            <mxPoint x="210" y="220" as="targetPoint" />
            <Array as="points" />
          </mxGeometry>
        </mxCell>
        <mxCell id="cYiCLH4inrJGbYnhFq96-156" value="" style="edgeStyle=none;orthogonalLoop=1;jettySize=auto;html=1;rounded=0;endArrow=none;endFill=0;strokeWidth=4;" edge="1" parent="cYiCLH4inrJGbYnhFq96-153">
          <mxGeometry width="80" relative="1" as="geometry">
            <mxPoint y="220" as="sourcePoint" />
            <mxPoint x="210" y="220" as="targetPoint" />
            <Array as="points" />
          </mxGeometry>
        </mxCell>
        <mxCell id="cYiCLH4inrJGbYnhFq96-157" value="" style="edgeStyle=none;orthogonalLoop=1;jettySize=auto;html=1;rounded=0;endArrow=none;endFill=0;strokeWidth=4;" edge="1" parent="cYiCLH4inrJGbYnhFq96-153">
          <mxGeometry width="80" relative="1" as="geometry">
            <mxPoint x="50" y="50" as="sourcePoint" />
            <mxPoint y="50" as="targetPoint" />
            <Array as="points" />
          </mxGeometry>
        </mxCell>
        <mxCell id="cYiCLH4inrJGbYnhFq96-158" value="" style="edgeStyle=none;orthogonalLoop=1;jettySize=auto;html=1;rounded=0;endArrow=none;endFill=0;strokeWidth=4;" edge="1" parent="cYiCLH4inrJGbYnhFq96-153">
          <mxGeometry width="80" relative="1" as="geometry">
            <mxPoint x="120" as="sourcePoint" />
            <mxPoint x="80" as="targetPoint" />
            <Array as="points" />
          </mxGeometry>
        </mxCell>
        <mxCell id="cYiCLH4inrJGbYnhFq96-159" value="" style="edgeStyle=none;orthogonalLoop=1;jettySize=auto;html=1;rounded=0;endArrow=none;endFill=0;strokeWidth=4;" edge="1" parent="cYiCLH4inrJGbYnhFq96-153">
          <mxGeometry width="80" relative="1" as="geometry">
            <mxPoint x="50" y="50" as="sourcePoint" />
            <mxPoint x="50" y="140" as="targetPoint" />
            <Array as="points" />
          </mxGeometry>
        </mxCell>
        <mxCell id="cYiCLH4inrJGbYnhFq96-160" value="" style="edgeStyle=none;orthogonalLoop=1;jettySize=auto;html=1;rounded=0;endArrow=none;endFill=0;strokeWidth=4;" edge="1" parent="cYiCLH4inrJGbYnhFq96-153">
          <mxGeometry width="80" relative="1" as="geometry">
            <mxPoint x="80" as="sourcePoint" />
            <mxPoint x="80" y="140" as="targetPoint" />
            <Array as="points" />
          </mxGeometry>
        </mxCell>
        <mxCell id="cYiCLH4inrJGbYnhFq96-161" value="" style="edgeStyle=none;orthogonalLoop=1;jettySize=auto;html=1;rounded=0;endArrow=none;endFill=0;strokeWidth=4;" edge="1" parent="cYiCLH4inrJGbYnhFq96-153">
          <mxGeometry width="80" relative="1" as="geometry">
            <mxPoint x="80" y="140" as="sourcePoint" />
            <mxPoint x="50" y="140" as="targetPoint" />
            <Array as="points" />
          </mxGeometry>
        </mxCell>
        <mxCell id="cYiCLH4inrJGbYnhFq96-162" value="" style="edgeStyle=none;orthogonalLoop=1;jettySize=auto;html=1;rounded=0;endArrow=none;endFill=0;strokeWidth=4;" edge="1" parent="cYiCLH4inrJGbYnhFq96-153">
          <mxGeometry width="80" relative="1" as="geometry">
            <mxPoint x="120" as="sourcePoint" />
            <mxPoint x="120" y="140" as="targetPoint" />
            <Array as="points" />
          </mxGeometry>
        </mxCell>
        <mxCell id="cYiCLH4inrJGbYnhFq96-163" value="" style="edgeStyle=none;orthogonalLoop=1;jettySize=auto;html=1;rounded=0;endArrow=none;endFill=0;strokeWidth=4;" edge="1" parent="cYiCLH4inrJGbYnhFq96-153">
          <mxGeometry width="80" relative="1" as="geometry">
            <mxPoint x="160" y="70" as="sourcePoint" />
            <mxPoint x="160" y="140" as="targetPoint" />
            <Array as="points" />
          </mxGeometry>
        </mxCell>
        <mxCell id="cYiCLH4inrJGbYnhFq96-164" value="" style="edgeStyle=none;orthogonalLoop=1;jettySize=auto;html=1;rounded=0;endArrow=none;endFill=0;strokeWidth=4;" edge="1" parent="cYiCLH4inrJGbYnhFq96-153">
          <mxGeometry width="80" relative="1" as="geometry">
            <mxPoint x="160" y="140" as="sourcePoint" />
            <mxPoint x="120" y="140" as="targetPoint" />
            <Array as="points" />
          </mxGeometry>
        </mxCell>
        <mxCell id="cYiCLH4inrJGbYnhFq96-165" value="" style="edgeStyle=none;orthogonalLoop=1;jettySize=auto;html=1;rounded=0;endArrow=none;endFill=0;strokeWidth=4;" edge="1" parent="cYiCLH4inrJGbYnhFq96-153">
          <mxGeometry width="80" relative="1" as="geometry">
            <mxPoint x="210" y="70" as="sourcePoint" />
            <mxPoint x="160" y="70" as="targetPoint" />
            <Array as="points" />
          </mxGeometry>
        </mxCell>
        <mxCell id="cYiCLH4inrJGbYnhFq96-166" value="" style="endArrow=none;dashed=1;html=1;strokeWidth=2;rounded=0;fillColor=#f8cecc;strokeColor=#ff0000;" edge="1" parent="1">
          <mxGeometry width="50" height="50" relative="1" as="geometry">
            <mxPoint x="814" y="360" as="sourcePoint" />
            <mxPoint x="564" y="360" as="targetPoint" />
          </mxGeometry>
        </mxCell>
        <mxCell id="cYiCLH4inrJGbYnhFq96-201" value="" style="group" vertex="1" connectable="0" parent="1">
          <mxGeometry x="313" y="600" width="160" height="220" as="geometry" />
        </mxCell>
        <mxCell id="cYiCLH4inrJGbYnhFq96-202" value="" style="edgeStyle=none;orthogonalLoop=1;jettySize=auto;html=1;rounded=0;endArrow=none;endFill=0;strokeWidth=4;" edge="1" parent="cYiCLH4inrJGbYnhFq96-201">
          <mxGeometry width="80" relative="1" as="geometry">
            <mxPoint as="sourcePoint" />
            <mxPoint y="220" as="targetPoint" />
            <Array as="points" />
          </mxGeometry>
        </mxCell>
        <mxCell id="cYiCLH4inrJGbYnhFq96-203" value="" style="edgeStyle=none;orthogonalLoop=1;jettySize=auto;html=1;rounded=0;endArrow=none;endFill=0;strokeWidth=4;" edge="1" parent="cYiCLH4inrJGbYnhFq96-201">
          <mxGeometry width="80" relative="1" as="geometry">
            <mxPoint x="160" as="sourcePoint" />
            <mxPoint x="160" y="220" as="targetPoint" />
            <Array as="points" />
          </mxGeometry>
        </mxCell>
        <mxCell id="cYiCLH4inrJGbYnhFq96-204" value="" style="edgeStyle=none;orthogonalLoop=1;jettySize=auto;html=1;rounded=0;endArrow=none;endFill=0;strokeWidth=4;" edge="1" parent="cYiCLH4inrJGbYnhFq96-201">
          <mxGeometry width="80" relative="1" as="geometry">
            <mxPoint x="50" as="sourcePoint" />
            <mxPoint as="targetPoint" />
            <Array as="points" />
          </mxGeometry>
        </mxCell>
        <mxCell id="cYiCLH4inrJGbYnhFq96-205" value="" style="edgeStyle=none;orthogonalLoop=1;jettySize=auto;html=1;rounded=0;endArrow=none;endFill=0;strokeWidth=4;" edge="1" parent="cYiCLH4inrJGbYnhFq96-201">
          <mxGeometry width="80" relative="1" as="geometry">
            <mxPoint x="160" as="sourcePoint" />
            <mxPoint x="110" as="targetPoint" />
            <Array as="points" />
          </mxGeometry>
        </mxCell>
        <mxCell id="cYiCLH4inrJGbYnhFq96-206" value="" style="edgeStyle=none;orthogonalLoop=1;jettySize=auto;html=1;rounded=0;endArrow=none;endFill=0;strokeWidth=4;" edge="1" parent="cYiCLH4inrJGbYnhFq96-201">
          <mxGeometry width="80" relative="1" as="geometry">
            <mxPoint x="50" as="sourcePoint" />
            <mxPoint x="50" y="90" as="targetPoint" />
            <Array as="points" />
          </mxGeometry>
        </mxCell>
        <mxCell id="cYiCLH4inrJGbYnhFq96-207" value="" style="edgeStyle=none;orthogonalLoop=1;jettySize=auto;html=1;rounded=0;endArrow=none;endFill=0;strokeWidth=4;" edge="1" parent="cYiCLH4inrJGbYnhFq96-201">
          <mxGeometry width="80" relative="1" as="geometry">
            <mxPoint x="110" as="sourcePoint" />
            <mxPoint x="110" y="90" as="targetPoint" />
            <Array as="points" />
          </mxGeometry>
        </mxCell>
        <mxCell id="cYiCLH4inrJGbYnhFq96-208" value="" style="edgeStyle=none;orthogonalLoop=1;jettySize=auto;html=1;rounded=0;endArrow=none;endFill=0;strokeWidth=4;" edge="1" parent="cYiCLH4inrJGbYnhFq96-201">
          <mxGeometry width="80" relative="1" as="geometry">
            <mxPoint x="110" y="90" as="sourcePoint" />
            <mxPoint x="50" y="90" as="targetPoint" />
            <Array as="points" />
          </mxGeometry>
        </mxCell>
        <mxCell id="cYiCLH4inrJGbYnhFq96-209" value="" style="group;rotation=-180;" vertex="1" connectable="0" parent="cYiCLH4inrJGbYnhFq96-201">
          <mxGeometry y="130" width="160" height="90" as="geometry" />
        </mxCell>
        <mxCell id="cYiCLH4inrJGbYnhFq96-210" value="" style="edgeStyle=none;orthogonalLoop=1;jettySize=auto;html=1;rounded=0;endArrow=none;endFill=0;strokeWidth=4;" edge="1" parent="cYiCLH4inrJGbYnhFq96-209">
          <mxGeometry width="80" relative="1" as="geometry">
            <mxPoint x="110" y="90" as="sourcePoint" />
            <mxPoint x="160" y="90" as="targetPoint" />
            <Array as="points" />
          </mxGeometry>
        </mxCell>
        <mxCell id="cYiCLH4inrJGbYnhFq96-211" value="" style="edgeStyle=none;orthogonalLoop=1;jettySize=auto;html=1;rounded=0;endArrow=none;endFill=0;strokeWidth=4;" edge="1" parent="cYiCLH4inrJGbYnhFq96-209">
          <mxGeometry width="80" relative="1" as="geometry">
            <mxPoint y="90" as="sourcePoint" />
            <mxPoint x="50" y="90" as="targetPoint" />
            <Array as="points" />
          </mxGeometry>
        </mxCell>
        <mxCell id="cYiCLH4inrJGbYnhFq96-212" value="" style="edgeStyle=none;orthogonalLoop=1;jettySize=auto;html=1;rounded=0;endArrow=none;endFill=0;strokeWidth=4;" edge="1" parent="cYiCLH4inrJGbYnhFq96-209">
          <mxGeometry width="80" relative="1" as="geometry">
            <mxPoint x="110" y="90" as="sourcePoint" />
            <mxPoint x="110" as="targetPoint" />
            <Array as="points" />
          </mxGeometry>
        </mxCell>
        <mxCell id="cYiCLH4inrJGbYnhFq96-213" value="" style="edgeStyle=none;orthogonalLoop=1;jettySize=auto;html=1;rounded=0;endArrow=none;endFill=0;strokeWidth=4;" edge="1" parent="cYiCLH4inrJGbYnhFq96-209">
          <mxGeometry width="80" relative="1" as="geometry">
            <mxPoint x="50" y="90" as="sourcePoint" />
            <mxPoint x="50" as="targetPoint" />
            <Array as="points" />
          </mxGeometry>
        </mxCell>
        <mxCell id="cYiCLH4inrJGbYnhFq96-214" value="" style="edgeStyle=none;orthogonalLoop=1;jettySize=auto;html=1;rounded=0;endArrow=none;endFill=0;strokeWidth=4;" edge="1" parent="cYiCLH4inrJGbYnhFq96-209">
          <mxGeometry width="80" relative="1" as="geometry">
            <mxPoint x="50" as="sourcePoint" />
            <mxPoint x="110" as="targetPoint" />
            <Array as="points" />
          </mxGeometry>
        </mxCell>
        <mxCell id="cYiCLH4inrJGbYnhFq96-215" value="" style="endArrow=none;dashed=1;html=1;strokeWidth=2;rounded=0;fillColor=#f8cecc;strokeColor=#ff0000;" edge="1" parent="cYiCLH4inrJGbYnhFq96-201">
          <mxGeometry width="50" height="50" relative="1" as="geometry">
            <mxPoint x="-29" y="50" as="sourcePoint" />
            <mxPoint x="181" y="240" as="targetPoint" />
          </mxGeometry>
        </mxCell>
        <mxCell id="cYiCLH4inrJGbYnhFq96-216" value="" style="group" vertex="1" connectable="0" parent="1">
          <mxGeometry x="579" y="600" width="160" height="220" as="geometry" />
        </mxCell>
        <mxCell id="cYiCLH4inrJGbYnhFq96-217" value="" style="edgeStyle=none;orthogonalLoop=1;jettySize=auto;html=1;rounded=0;endArrow=none;endFill=0;strokeWidth=4;" edge="1" parent="cYiCLH4inrJGbYnhFq96-216">
          <mxGeometry width="80" relative="1" as="geometry">
            <mxPoint as="sourcePoint" />
            <mxPoint y="220" as="targetPoint" />
            <Array as="points" />
          </mxGeometry>
        </mxCell>
        <mxCell id="cYiCLH4inrJGbYnhFq96-218" value="" style="edgeStyle=none;orthogonalLoop=1;jettySize=auto;html=1;rounded=0;endArrow=none;endFill=0;strokeWidth=4;" edge="1" parent="cYiCLH4inrJGbYnhFq96-216">
          <mxGeometry width="80" relative="1" as="geometry">
            <mxPoint x="160" as="sourcePoint" />
            <mxPoint x="160" y="220" as="targetPoint" />
            <Array as="points" />
          </mxGeometry>
        </mxCell>
        <mxCell id="cYiCLH4inrJGbYnhFq96-219" value="" style="edgeStyle=none;orthogonalLoop=1;jettySize=auto;html=1;rounded=0;endArrow=none;endFill=0;strokeWidth=4;" edge="1" parent="cYiCLH4inrJGbYnhFq96-216">
          <mxGeometry width="80" relative="1" as="geometry">
            <mxPoint x="50" as="sourcePoint" />
            <mxPoint as="targetPoint" />
            <Array as="points" />
          </mxGeometry>
        </mxCell>
        <mxCell id="cYiCLH4inrJGbYnhFq96-220" value="" style="edgeStyle=none;orthogonalLoop=1;jettySize=auto;html=1;rounded=0;endArrow=none;endFill=0;strokeWidth=4;" edge="1" parent="cYiCLH4inrJGbYnhFq96-216">
          <mxGeometry width="80" relative="1" as="geometry">
            <mxPoint x="160" as="sourcePoint" />
            <mxPoint x="110" as="targetPoint" />
            <Array as="points" />
          </mxGeometry>
        </mxCell>
        <mxCell id="cYiCLH4inrJGbYnhFq96-221" value="" style="edgeStyle=none;orthogonalLoop=1;jettySize=auto;html=1;rounded=0;endArrow=none;endFill=0;strokeWidth=4;" edge="1" parent="cYiCLH4inrJGbYnhFq96-216">
          <mxGeometry width="80" relative="1" as="geometry">
            <mxPoint x="50" as="sourcePoint" />
            <mxPoint x="50" y="90" as="targetPoint" />
            <Array as="points" />
          </mxGeometry>
        </mxCell>
        <mxCell id="cYiCLH4inrJGbYnhFq96-222" value="" style="edgeStyle=none;orthogonalLoop=1;jettySize=auto;html=1;rounded=0;endArrow=none;endFill=0;strokeWidth=4;" edge="1" parent="cYiCLH4inrJGbYnhFq96-216">
          <mxGeometry width="80" relative="1" as="geometry">
            <mxPoint x="110" as="sourcePoint" />
            <mxPoint x="110" y="90" as="targetPoint" />
            <Array as="points" />
          </mxGeometry>
        </mxCell>
        <mxCell id="cYiCLH4inrJGbYnhFq96-223" value="" style="edgeStyle=none;orthogonalLoop=1;jettySize=auto;html=1;rounded=0;endArrow=none;endFill=0;strokeWidth=4;" edge="1" parent="cYiCLH4inrJGbYnhFq96-216">
          <mxGeometry width="80" relative="1" as="geometry">
            <mxPoint x="110" y="90" as="sourcePoint" />
            <mxPoint x="50" y="90" as="targetPoint" />
            <Array as="points" />
          </mxGeometry>
        </mxCell>
        <mxCell id="cYiCLH4inrJGbYnhFq96-224" value="" style="group;rotation=-180;" vertex="1" connectable="0" parent="cYiCLH4inrJGbYnhFq96-216">
          <mxGeometry y="130" width="160" height="90" as="geometry" />
        </mxCell>
        <mxCell id="cYiCLH4inrJGbYnhFq96-225" value="" style="edgeStyle=none;orthogonalLoop=1;jettySize=auto;html=1;rounded=0;endArrow=none;endFill=0;strokeWidth=4;" edge="1" parent="cYiCLH4inrJGbYnhFq96-224">
          <mxGeometry width="80" relative="1" as="geometry">
            <mxPoint x="110" y="90" as="sourcePoint" />
            <mxPoint x="160" y="90" as="targetPoint" />
            <Array as="points" />
          </mxGeometry>
        </mxCell>
        <mxCell id="cYiCLH4inrJGbYnhFq96-226" value="" style="edgeStyle=none;orthogonalLoop=1;jettySize=auto;html=1;rounded=0;endArrow=none;endFill=0;strokeWidth=4;" edge="1" parent="cYiCLH4inrJGbYnhFq96-224">
          <mxGeometry width="80" relative="1" as="geometry">
            <mxPoint y="90" as="sourcePoint" />
            <mxPoint x="50" y="90" as="targetPoint" />
            <Array as="points" />
          </mxGeometry>
        </mxCell>
        <mxCell id="cYiCLH4inrJGbYnhFq96-227" value="" style="edgeStyle=none;orthogonalLoop=1;jettySize=auto;html=1;rounded=0;endArrow=none;endFill=0;strokeWidth=4;" edge="1" parent="cYiCLH4inrJGbYnhFq96-224">
          <mxGeometry width="80" relative="1" as="geometry">
            <mxPoint x="110" y="90" as="sourcePoint" />
            <mxPoint x="110" as="targetPoint" />
            <Array as="points" />
          </mxGeometry>
        </mxCell>
        <mxCell id="cYiCLH4inrJGbYnhFq96-228" value="" style="edgeStyle=none;orthogonalLoop=1;jettySize=auto;html=1;rounded=0;endArrow=none;endFill=0;strokeWidth=4;" edge="1" parent="cYiCLH4inrJGbYnhFq96-224">
          <mxGeometry width="80" relative="1" as="geometry">
            <mxPoint x="50" y="90" as="sourcePoint" />
            <mxPoint x="50" as="targetPoint" />
            <Array as="points" />
          </mxGeometry>
        </mxCell>
        <mxCell id="cYiCLH4inrJGbYnhFq96-229" value="" style="edgeStyle=none;orthogonalLoop=1;jettySize=auto;html=1;rounded=0;endArrow=none;endFill=0;strokeWidth=4;" edge="1" parent="cYiCLH4inrJGbYnhFq96-224">
          <mxGeometry width="80" relative="1" as="geometry">
            <mxPoint x="50" as="sourcePoint" />
            <mxPoint x="110" as="targetPoint" />
            <Array as="points" />
          </mxGeometry>
        </mxCell>
        <mxCell id="cYiCLH4inrJGbYnhFq96-230" value="" style="endArrow=none;dashed=1;html=1;strokeWidth=2;rounded=0;fillColor=#f8cecc;strokeColor=#ff0000;" edge="1" parent="cYiCLH4inrJGbYnhFq96-216">
          <mxGeometry width="50" height="50" relative="1" as="geometry">
            <mxPoint x="-25" y="-40" as="sourcePoint" />
            <mxPoint x="181" y="240" as="targetPoint" />
          </mxGeometry>
        </mxCell>
        <mxCell id="cYiCLH4inrJGbYnhFq96-231" value="" style="group" vertex="1" connectable="0" parent="1">
          <mxGeometry x="44" y="930" width="160" height="170" as="geometry" />
        </mxCell>
        <mxCell id="cYiCLH4inrJGbYnhFq96-232" value="" style="edgeStyle=none;orthogonalLoop=1;jettySize=auto;html=1;rounded=0;endArrow=none;endFill=0;strokeWidth=4;" edge="1" parent="cYiCLH4inrJGbYnhFq96-231">
          <mxGeometry width="80" relative="1" as="geometry">
            <mxPoint as="sourcePoint" />
            <mxPoint y="170" as="targetPoint" />
            <Array as="points" />
          </mxGeometry>
        </mxCell>
        <mxCell id="cYiCLH4inrJGbYnhFq96-233" value="" style="edgeStyle=none;orthogonalLoop=1;jettySize=auto;html=1;rounded=0;endArrow=none;endFill=0;strokeWidth=4;" edge="1" parent="cYiCLH4inrJGbYnhFq96-231">
          <mxGeometry width="80" relative="1" as="geometry">
            <mxPoint x="160" as="sourcePoint" />
            <mxPoint x="160" y="170" as="targetPoint" />
            <Array as="points" />
          </mxGeometry>
        </mxCell>
        <mxCell id="cYiCLH4inrJGbYnhFq96-234" value="" style="edgeStyle=none;orthogonalLoop=1;jettySize=auto;html=1;rounded=0;endArrow=none;endFill=0;strokeWidth=4;" edge="1" parent="cYiCLH4inrJGbYnhFq96-231">
          <mxGeometry width="80" relative="1" as="geometry">
            <mxPoint y="170" as="sourcePoint" />
            <mxPoint x="160" y="170" as="targetPoint" />
            <Array as="points" />
          </mxGeometry>
        </mxCell>
        <mxCell id="cYiCLH4inrJGbYnhFq96-235" value="" style="edgeStyle=none;orthogonalLoop=1;jettySize=auto;html=1;rounded=0;endArrow=none;endFill=0;strokeWidth=4;" edge="1" parent="cYiCLH4inrJGbYnhFq96-231">
          <mxGeometry width="80" relative="1" as="geometry">
            <mxPoint x="50" as="sourcePoint" />
            <mxPoint as="targetPoint" />
            <Array as="points" />
          </mxGeometry>
        </mxCell>
        <mxCell id="cYiCLH4inrJGbYnhFq96-236" value="" style="edgeStyle=none;orthogonalLoop=1;jettySize=auto;html=1;rounded=0;endArrow=none;endFill=0;strokeWidth=4;" edge="1" parent="cYiCLH4inrJGbYnhFq96-231">
          <mxGeometry width="80" relative="1" as="geometry">
            <mxPoint x="160" as="sourcePoint" />
            <mxPoint x="110" as="targetPoint" />
            <Array as="points" />
          </mxGeometry>
        </mxCell>
        <mxCell id="cYiCLH4inrJGbYnhFq96-237" value="" style="edgeStyle=none;orthogonalLoop=1;jettySize=auto;html=1;rounded=0;endArrow=none;endFill=0;strokeWidth=4;" edge="1" parent="cYiCLH4inrJGbYnhFq96-231">
          <mxGeometry width="80" relative="1" as="geometry">
            <mxPoint x="50" as="sourcePoint" />
            <mxPoint x="50" y="90" as="targetPoint" />
            <Array as="points" />
          </mxGeometry>
        </mxCell>
        <mxCell id="cYiCLH4inrJGbYnhFq96-238" value="" style="edgeStyle=none;orthogonalLoop=1;jettySize=auto;html=1;rounded=0;endArrow=none;endFill=0;strokeWidth=4;" edge="1" parent="cYiCLH4inrJGbYnhFq96-231">
          <mxGeometry width="80" relative="1" as="geometry">
            <mxPoint x="109" as="sourcePoint" />
            <mxPoint x="109" y="90" as="targetPoint" />
            <Array as="points" />
          </mxGeometry>
        </mxCell>
        <mxCell id="cYiCLH4inrJGbYnhFq96-239" value="" style="edgeStyle=none;orthogonalLoop=1;jettySize=auto;html=1;rounded=0;endArrow=none;endFill=0;strokeWidth=4;" edge="1" parent="cYiCLH4inrJGbYnhFq96-231">
          <mxGeometry width="80" relative="1" as="geometry">
            <mxPoint x="110" y="90" as="sourcePoint" />
            <mxPoint x="50" y="90" as="targetPoint" />
            <Array as="points" />
          </mxGeometry>
        </mxCell>
        <mxCell id="cYiCLH4inrJGbYnhFq96-260" value="" style="endArrow=none;html=1;strokeWidth=2;rounded=0;fillColor=#f8cecc;strokeColor=#ff0000;dashed=1;" edge="1" parent="cYiCLH4inrJGbYnhFq96-231">
          <mxGeometry width="50" height="50" relative="1" as="geometry">
            <mxPoint x="79.38" y="-20" as="sourcePoint" />
            <mxPoint x="79.38" y="70" as="targetPoint" />
          </mxGeometry>
        </mxCell>
        <mxCell id="cYiCLH4inrJGbYnhFq96-251" value="" style="group" vertex="1" connectable="0" parent="1">
          <mxGeometry x="270" y="930" width="160" height="170" as="geometry" />
        </mxCell>
        <mxCell id="cYiCLH4inrJGbYnhFq96-252" value="" style="edgeStyle=none;orthogonalLoop=1;jettySize=auto;html=1;rounded=0;endArrow=none;endFill=0;strokeWidth=4;" edge="1" parent="cYiCLH4inrJGbYnhFq96-251">
          <mxGeometry width="80" relative="1" as="geometry">
            <mxPoint as="sourcePoint" />
            <mxPoint y="170" as="targetPoint" />
            <Array as="points" />
          </mxGeometry>
        </mxCell>
        <mxCell id="cYiCLH4inrJGbYnhFq96-253" value="" style="edgeStyle=none;orthogonalLoop=1;jettySize=auto;html=1;rounded=0;endArrow=none;endFill=0;strokeWidth=4;" edge="1" parent="cYiCLH4inrJGbYnhFq96-251">
          <mxGeometry width="80" relative="1" as="geometry">
            <mxPoint x="160" as="sourcePoint" />
            <mxPoint x="160" y="170" as="targetPoint" />
            <Array as="points" />
          </mxGeometry>
        </mxCell>
        <mxCell id="cYiCLH4inrJGbYnhFq96-254" value="" style="edgeStyle=none;orthogonalLoop=1;jettySize=auto;html=1;rounded=0;endArrow=none;endFill=0;strokeWidth=4;" edge="1" parent="cYiCLH4inrJGbYnhFq96-251">
          <mxGeometry width="80" relative="1" as="geometry">
            <mxPoint y="170" as="sourcePoint" />
            <mxPoint x="160" y="170" as="targetPoint" />
            <Array as="points" />
          </mxGeometry>
        </mxCell>
        <mxCell id="cYiCLH4inrJGbYnhFq96-255" value="" style="edgeStyle=none;orthogonalLoop=1;jettySize=auto;html=1;rounded=0;endArrow=none;endFill=0;strokeWidth=4;" edge="1" parent="cYiCLH4inrJGbYnhFq96-251">
          <mxGeometry width="80" relative="1" as="geometry">
            <mxPoint x="50" as="sourcePoint" />
            <mxPoint as="targetPoint" />
            <Array as="points" />
          </mxGeometry>
        </mxCell>
        <mxCell id="cYiCLH4inrJGbYnhFq96-256" value="" style="edgeStyle=none;orthogonalLoop=1;jettySize=auto;html=1;rounded=0;endArrow=none;endFill=0;strokeWidth=4;" edge="1" parent="cYiCLH4inrJGbYnhFq96-251">
          <mxGeometry width="80" relative="1" as="geometry">
            <mxPoint x="160" as="sourcePoint" />
            <mxPoint x="110" as="targetPoint" />
            <Array as="points" />
          </mxGeometry>
        </mxCell>
        <mxCell id="cYiCLH4inrJGbYnhFq96-257" value="" style="edgeStyle=none;orthogonalLoop=1;jettySize=auto;html=1;rounded=0;endArrow=none;endFill=0;strokeWidth=4;" edge="1" parent="cYiCLH4inrJGbYnhFq96-251">
          <mxGeometry width="80" relative="1" as="geometry">
            <mxPoint x="50" as="sourcePoint" />
            <mxPoint x="50" y="90" as="targetPoint" />
            <Array as="points" />
          </mxGeometry>
        </mxCell>
        <mxCell id="cYiCLH4inrJGbYnhFq96-258" value="" style="edgeStyle=none;orthogonalLoop=1;jettySize=auto;html=1;rounded=0;endArrow=none;endFill=0;strokeWidth=4;" edge="1" parent="cYiCLH4inrJGbYnhFq96-251">
          <mxGeometry width="80" relative="1" as="geometry">
            <mxPoint x="110" as="sourcePoint" />
            <mxPoint x="110" y="90" as="targetPoint" />
            <Array as="points" />
          </mxGeometry>
        </mxCell>
        <mxCell id="cYiCLH4inrJGbYnhFq96-259" value="" style="edgeStyle=none;orthogonalLoop=1;jettySize=auto;html=1;rounded=0;endArrow=none;endFill=0;strokeWidth=4;" edge="1" parent="cYiCLH4inrJGbYnhFq96-251">
          <mxGeometry width="80" relative="1" as="geometry">
            <mxPoint x="110" y="90" as="sourcePoint" />
            <mxPoint x="50" y="90" as="targetPoint" />
            <Array as="points" />
          </mxGeometry>
        </mxCell>
        <mxCell id="cYiCLH4inrJGbYnhFq96-240" value="" style="endArrow=none;html=1;strokeWidth=2;rounded=0;fillColor=#f8cecc;strokeColor=#ff0000;dashed=1;" edge="1" parent="cYiCLH4inrJGbYnhFq96-251">
          <mxGeometry width="50" height="50" relative="1" as="geometry">
            <mxPoint x="20" y="50" as="sourcePoint" />
            <mxPoint x="74" y="50" as="targetPoint" />
          </mxGeometry>
        </mxCell>
        <mxCell id="cYiCLH4inrJGbYnhFq96-261" value="" style="group" vertex="1" connectable="0" parent="1">
          <mxGeometry x="490" y="930" width="160" height="170" as="geometry" />
        </mxCell>
        <mxCell id="cYiCLH4inrJGbYnhFq96-262" value="" style="edgeStyle=none;orthogonalLoop=1;jettySize=auto;html=1;rounded=0;endArrow=none;endFill=0;strokeWidth=4;" edge="1" parent="cYiCLH4inrJGbYnhFq96-261">
          <mxGeometry width="80" relative="1" as="geometry">
            <mxPoint as="sourcePoint" />
            <mxPoint y="170" as="targetPoint" />
            <Array as="points" />
          </mxGeometry>
        </mxCell>
        <mxCell id="cYiCLH4inrJGbYnhFq96-263" value="" style="edgeStyle=none;orthogonalLoop=1;jettySize=auto;html=1;rounded=0;endArrow=none;endFill=0;strokeWidth=4;" edge="1" parent="cYiCLH4inrJGbYnhFq96-261">
          <mxGeometry width="80" relative="1" as="geometry">
            <mxPoint x="160" as="sourcePoint" />
            <mxPoint x="160" y="170" as="targetPoint" />
            <Array as="points" />
          </mxGeometry>
        </mxCell>
        <mxCell id="cYiCLH4inrJGbYnhFq96-264" value="" style="edgeStyle=none;orthogonalLoop=1;jettySize=auto;html=1;rounded=0;endArrow=none;endFill=0;strokeWidth=4;" edge="1" parent="cYiCLH4inrJGbYnhFq96-261">
          <mxGeometry width="80" relative="1" as="geometry">
            <mxPoint y="170" as="sourcePoint" />
            <mxPoint x="160" y="170" as="targetPoint" />
            <Array as="points" />
          </mxGeometry>
        </mxCell>
        <mxCell id="cYiCLH4inrJGbYnhFq96-265" value="" style="edgeStyle=none;orthogonalLoop=1;jettySize=auto;html=1;rounded=0;endArrow=none;endFill=0;strokeWidth=4;" edge="1" parent="cYiCLH4inrJGbYnhFq96-261">
          <mxGeometry width="80" relative="1" as="geometry">
            <mxPoint x="50" as="sourcePoint" />
            <mxPoint as="targetPoint" />
            <Array as="points" />
          </mxGeometry>
        </mxCell>
        <mxCell id="cYiCLH4inrJGbYnhFq96-266" value="" style="edgeStyle=none;orthogonalLoop=1;jettySize=auto;html=1;rounded=0;endArrow=none;endFill=0;strokeWidth=4;" edge="1" parent="cYiCLH4inrJGbYnhFq96-261">
          <mxGeometry width="80" relative="1" as="geometry">
            <mxPoint x="160" as="sourcePoint" />
            <mxPoint x="110" as="targetPoint" />
            <Array as="points" />
          </mxGeometry>
        </mxCell>
        <mxCell id="cYiCLH4inrJGbYnhFq96-267" value="" style="edgeStyle=none;orthogonalLoop=1;jettySize=auto;html=1;rounded=0;endArrow=none;endFill=0;strokeWidth=4;" edge="1" parent="cYiCLH4inrJGbYnhFq96-261">
          <mxGeometry width="80" relative="1" as="geometry">
            <mxPoint x="50" as="sourcePoint" />
            <mxPoint x="50" y="90" as="targetPoint" />
            <Array as="points" />
          </mxGeometry>
        </mxCell>
        <mxCell id="cYiCLH4inrJGbYnhFq96-268" value="" style="edgeStyle=none;orthogonalLoop=1;jettySize=auto;html=1;rounded=0;endArrow=none;endFill=0;strokeWidth=4;" edge="1" parent="cYiCLH4inrJGbYnhFq96-261">
          <mxGeometry width="80" relative="1" as="geometry">
            <mxPoint x="110" as="sourcePoint" />
            <mxPoint x="110" y="90" as="targetPoint" />
            <Array as="points" />
          </mxGeometry>
        </mxCell>
        <mxCell id="cYiCLH4inrJGbYnhFq96-269" value="" style="edgeStyle=none;orthogonalLoop=1;jettySize=auto;html=1;rounded=0;endArrow=none;endFill=0;strokeWidth=4;" edge="1" parent="cYiCLH4inrJGbYnhFq96-261">
          <mxGeometry width="80" relative="1" as="geometry">
            <mxPoint x="110" y="90" as="sourcePoint" />
            <mxPoint x="50" y="90" as="targetPoint" />
            <Array as="points" />
          </mxGeometry>
        </mxCell>
        <mxCell id="cYiCLH4inrJGbYnhFq96-270" value="" style="endArrow=none;html=1;strokeWidth=2;rounded=0;fillColor=#f8cecc;strokeColor=#ff0000;dashed=1;" edge="1" parent="cYiCLH4inrJGbYnhFq96-261">
          <mxGeometry width="50" height="50" relative="1" as="geometry">
            <mxPoint x="15" y="60" as="sourcePoint" />
            <mxPoint x="130" y="60" as="targetPoint" />
          </mxGeometry>
        </mxCell>
        <mxCell id="cYiCLH4inrJGbYnhFq96-271" value="" style="group" vertex="1" connectable="0" parent="1">
          <mxGeometry x="700" y="930" width="160" height="170" as="geometry" />
        </mxCell>
        <mxCell id="cYiCLH4inrJGbYnhFq96-272" value="" style="edgeStyle=none;orthogonalLoop=1;jettySize=auto;html=1;rounded=0;endArrow=none;endFill=0;strokeWidth=4;" edge="1" parent="cYiCLH4inrJGbYnhFq96-271">
          <mxGeometry width="80" relative="1" as="geometry">
            <mxPoint as="sourcePoint" />
            <mxPoint y="170" as="targetPoint" />
            <Array as="points" />
          </mxGeometry>
        </mxCell>
        <mxCell id="cYiCLH4inrJGbYnhFq96-273" value="" style="edgeStyle=none;orthogonalLoop=1;jettySize=auto;html=1;rounded=0;endArrow=none;endFill=0;strokeWidth=4;" edge="1" parent="cYiCLH4inrJGbYnhFq96-271">
          <mxGeometry width="80" relative="1" as="geometry">
            <mxPoint x="160" as="sourcePoint" />
            <mxPoint x="160" y="170" as="targetPoint" />
            <Array as="points" />
          </mxGeometry>
        </mxCell>
        <mxCell id="cYiCLH4inrJGbYnhFq96-274" value="" style="edgeStyle=none;orthogonalLoop=1;jettySize=auto;html=1;rounded=0;endArrow=none;endFill=0;strokeWidth=4;" edge="1" parent="cYiCLH4inrJGbYnhFq96-271">
          <mxGeometry width="80" relative="1" as="geometry">
            <mxPoint y="170" as="sourcePoint" />
            <mxPoint x="160" y="170" as="targetPoint" />
            <Array as="points" />
          </mxGeometry>
        </mxCell>
        <mxCell id="cYiCLH4inrJGbYnhFq96-275" value="" style="edgeStyle=none;orthogonalLoop=1;jettySize=auto;html=1;rounded=0;endArrow=none;endFill=0;strokeWidth=4;" edge="1" parent="cYiCLH4inrJGbYnhFq96-271">
          <mxGeometry width="80" relative="1" as="geometry">
            <mxPoint x="50" as="sourcePoint" />
            <mxPoint as="targetPoint" />
            <Array as="points" />
          </mxGeometry>
        </mxCell>
        <mxCell id="cYiCLH4inrJGbYnhFq96-276" value="" style="edgeStyle=none;orthogonalLoop=1;jettySize=auto;html=1;rounded=0;endArrow=none;endFill=0;strokeWidth=4;" edge="1" parent="cYiCLH4inrJGbYnhFq96-271">
          <mxGeometry width="80" relative="1" as="geometry">
            <mxPoint x="160" as="sourcePoint" />
            <mxPoint x="110" as="targetPoint" />
            <Array as="points" />
          </mxGeometry>
        </mxCell>
        <mxCell id="cYiCLH4inrJGbYnhFq96-277" value="" style="edgeStyle=none;orthogonalLoop=1;jettySize=auto;html=1;rounded=0;endArrow=none;endFill=0;strokeWidth=4;" edge="1" parent="cYiCLH4inrJGbYnhFq96-271">
          <mxGeometry width="80" relative="1" as="geometry">
            <mxPoint x="50" as="sourcePoint" />
            <mxPoint x="50" y="90" as="targetPoint" />
            <Array as="points" />
          </mxGeometry>
        </mxCell>
        <mxCell id="cYiCLH4inrJGbYnhFq96-278" value="" style="edgeStyle=none;orthogonalLoop=1;jettySize=auto;html=1;rounded=0;endArrow=none;endFill=0;strokeWidth=4;" edge="1" parent="cYiCLH4inrJGbYnhFq96-271">
          <mxGeometry width="80" relative="1" as="geometry">
            <mxPoint x="110" as="sourcePoint" />
            <mxPoint x="110" y="90" as="targetPoint" />
            <Array as="points" />
          </mxGeometry>
        </mxCell>
        <mxCell id="cYiCLH4inrJGbYnhFq96-279" value="" style="edgeStyle=none;orthogonalLoop=1;jettySize=auto;html=1;rounded=0;endArrow=none;endFill=0;strokeWidth=4;" edge="1" parent="cYiCLH4inrJGbYnhFq96-271">
          <mxGeometry width="80" relative="1" as="geometry">
            <mxPoint x="110" y="90" as="sourcePoint" />
            <mxPoint x="50" y="90" as="targetPoint" />
            <Array as="points" />
          </mxGeometry>
        </mxCell>
        <mxCell id="cYiCLH4inrJGbYnhFq96-280" value="" style="endArrow=none;html=1;strokeWidth=2;rounded=0;fillColor=#f8cecc;strokeColor=#ff0000;dashed=1;" edge="1" parent="cYiCLH4inrJGbYnhFq96-271">
          <mxGeometry width="50" height="50" relative="1" as="geometry">
            <mxPoint x="30" y="60" as="sourcePoint" />
            <mxPoint x="30" y="130" as="targetPoint" />
          </mxGeometry>
        </mxCell>
        <mxCell id="cYiCLH4inrJGbYnhFq96-291" value="" style="group" vertex="1" connectable="0" parent="1">
          <mxGeometry x="44" y="1190" width="160" height="170" as="geometry" />
        </mxCell>
        <mxCell id="cYiCLH4inrJGbYnhFq96-292" value="" style="edgeStyle=none;orthogonalLoop=1;jettySize=auto;html=1;rounded=0;endArrow=none;endFill=0;strokeWidth=4;" edge="1" parent="cYiCLH4inrJGbYnhFq96-291">
          <mxGeometry width="80" relative="1" as="geometry">
            <mxPoint as="sourcePoint" />
            <mxPoint y="170" as="targetPoint" />
            <Array as="points" />
          </mxGeometry>
        </mxCell>
        <mxCell id="cYiCLH4inrJGbYnhFq96-293" value="" style="edgeStyle=none;orthogonalLoop=1;jettySize=auto;html=1;rounded=0;endArrow=none;endFill=0;strokeWidth=4;" edge="1" parent="cYiCLH4inrJGbYnhFq96-291">
          <mxGeometry width="80" relative="1" as="geometry">
            <mxPoint x="160" as="sourcePoint" />
            <mxPoint x="160" y="170" as="targetPoint" />
            <Array as="points" />
          </mxGeometry>
        </mxCell>
        <mxCell id="cYiCLH4inrJGbYnhFq96-294" value="" style="edgeStyle=none;orthogonalLoop=1;jettySize=auto;html=1;rounded=0;endArrow=none;endFill=0;strokeWidth=4;" edge="1" parent="cYiCLH4inrJGbYnhFq96-291">
          <mxGeometry width="80" relative="1" as="geometry">
            <mxPoint y="170" as="sourcePoint" />
            <mxPoint x="160" y="170" as="targetPoint" />
            <Array as="points" />
          </mxGeometry>
        </mxCell>
        <mxCell id="cYiCLH4inrJGbYnhFq96-295" value="" style="edgeStyle=none;orthogonalLoop=1;jettySize=auto;html=1;rounded=0;endArrow=none;endFill=0;strokeWidth=4;" edge="1" parent="cYiCLH4inrJGbYnhFq96-291">
          <mxGeometry width="80" relative="1" as="geometry">
            <mxPoint x="50" as="sourcePoint" />
            <mxPoint as="targetPoint" />
            <Array as="points" />
          </mxGeometry>
        </mxCell>
        <mxCell id="cYiCLH4inrJGbYnhFq96-296" value="" style="edgeStyle=none;orthogonalLoop=1;jettySize=auto;html=1;rounded=0;endArrow=none;endFill=0;strokeWidth=4;" edge="1" parent="cYiCLH4inrJGbYnhFq96-291">
          <mxGeometry width="80" relative="1" as="geometry">
            <mxPoint x="160" as="sourcePoint" />
            <mxPoint x="110" as="targetPoint" />
            <Array as="points" />
          </mxGeometry>
        </mxCell>
        <mxCell id="cYiCLH4inrJGbYnhFq96-297" value="" style="edgeStyle=none;orthogonalLoop=1;jettySize=auto;html=1;rounded=0;endArrow=none;endFill=0;strokeWidth=4;" edge="1" parent="cYiCLH4inrJGbYnhFq96-291">
          <mxGeometry width="80" relative="1" as="geometry">
            <mxPoint x="50" as="sourcePoint" />
            <mxPoint x="50" y="90" as="targetPoint" />
            <Array as="points" />
          </mxGeometry>
        </mxCell>
        <mxCell id="cYiCLH4inrJGbYnhFq96-298" value="" style="edgeStyle=none;orthogonalLoop=1;jettySize=auto;html=1;rounded=0;endArrow=none;endFill=0;strokeWidth=4;" edge="1" parent="cYiCLH4inrJGbYnhFq96-291">
          <mxGeometry width="80" relative="1" as="geometry">
            <mxPoint x="110" as="sourcePoint" />
            <mxPoint x="110" y="90" as="targetPoint" />
            <Array as="points" />
          </mxGeometry>
        </mxCell>
        <mxCell id="cYiCLH4inrJGbYnhFq96-299" value="" style="edgeStyle=none;orthogonalLoop=1;jettySize=auto;html=1;rounded=0;endArrow=none;endFill=0;strokeWidth=4;" edge="1" parent="cYiCLH4inrJGbYnhFq96-291">
          <mxGeometry width="80" relative="1" as="geometry">
            <mxPoint x="110" y="90" as="sourcePoint" />
            <mxPoint x="50" y="90" as="targetPoint" />
            <Array as="points" />
          </mxGeometry>
        </mxCell>
        <mxCell id="cYiCLH4inrJGbYnhFq96-300" value="" style="endArrow=none;html=1;strokeWidth=2;rounded=0;fillColor=#f8cecc;strokeColor=#ff0000;dashed=1;" edge="1" parent="cYiCLH4inrJGbYnhFq96-291">
          <mxGeometry width="50" height="50" relative="1" as="geometry">
            <mxPoint x="-24" y="70" as="sourcePoint" />
            <mxPoint x="79.38" y="70" as="targetPoint" />
          </mxGeometry>
        </mxCell>
        <mxCell id="cYiCLH4inrJGbYnhFq96-301" value="" style="group" vertex="1" connectable="0" parent="1">
          <mxGeometry x="270" y="1190" width="160" height="170" as="geometry" />
        </mxCell>
        <mxCell id="cYiCLH4inrJGbYnhFq96-302" value="" style="edgeStyle=none;orthogonalLoop=1;jettySize=auto;html=1;rounded=0;endArrow=none;endFill=0;strokeWidth=4;" edge="1" parent="cYiCLH4inrJGbYnhFq96-301">
          <mxGeometry width="80" relative="1" as="geometry">
            <mxPoint as="sourcePoint" />
            <mxPoint y="170" as="targetPoint" />
            <Array as="points" />
          </mxGeometry>
        </mxCell>
        <mxCell id="cYiCLH4inrJGbYnhFq96-303" value="" style="edgeStyle=none;orthogonalLoop=1;jettySize=auto;html=1;rounded=0;endArrow=none;endFill=0;strokeWidth=4;" edge="1" parent="cYiCLH4inrJGbYnhFq96-301">
          <mxGeometry width="80" relative="1" as="geometry">
            <mxPoint x="160" as="sourcePoint" />
            <mxPoint x="160" y="170" as="targetPoint" />
            <Array as="points" />
          </mxGeometry>
        </mxCell>
        <mxCell id="cYiCLH4inrJGbYnhFq96-304" value="" style="edgeStyle=none;orthogonalLoop=1;jettySize=auto;html=1;rounded=0;endArrow=none;endFill=0;strokeWidth=4;" edge="1" parent="cYiCLH4inrJGbYnhFq96-301">
          <mxGeometry width="80" relative="1" as="geometry">
            <mxPoint y="170" as="sourcePoint" />
            <mxPoint x="160" y="170" as="targetPoint" />
            <Array as="points" />
          </mxGeometry>
        </mxCell>
        <mxCell id="cYiCLH4inrJGbYnhFq96-305" value="" style="edgeStyle=none;orthogonalLoop=1;jettySize=auto;html=1;rounded=0;endArrow=none;endFill=0;strokeWidth=4;" edge="1" parent="cYiCLH4inrJGbYnhFq96-301">
          <mxGeometry width="80" relative="1" as="geometry">
            <mxPoint x="50" as="sourcePoint" />
            <mxPoint as="targetPoint" />
            <Array as="points" />
          </mxGeometry>
        </mxCell>
        <mxCell id="cYiCLH4inrJGbYnhFq96-306" value="" style="edgeStyle=none;orthogonalLoop=1;jettySize=auto;html=1;rounded=0;endArrow=none;endFill=0;strokeWidth=4;" edge="1" parent="cYiCLH4inrJGbYnhFq96-301">
          <mxGeometry width="80" relative="1" as="geometry">
            <mxPoint x="160" as="sourcePoint" />
            <mxPoint x="110" as="targetPoint" />
            <Array as="points" />
          </mxGeometry>
        </mxCell>
        <mxCell id="cYiCLH4inrJGbYnhFq96-307" value="" style="edgeStyle=none;orthogonalLoop=1;jettySize=auto;html=1;rounded=0;endArrow=none;endFill=0;strokeWidth=4;" edge="1" parent="cYiCLH4inrJGbYnhFq96-301">
          <mxGeometry width="80" relative="1" as="geometry">
            <mxPoint x="50" as="sourcePoint" />
            <mxPoint x="50" y="90" as="targetPoint" />
            <Array as="points" />
          </mxGeometry>
        </mxCell>
        <mxCell id="cYiCLH4inrJGbYnhFq96-308" value="" style="edgeStyle=none;orthogonalLoop=1;jettySize=auto;html=1;rounded=0;endArrow=none;endFill=0;strokeWidth=4;" edge="1" parent="cYiCLH4inrJGbYnhFq96-301">
          <mxGeometry width="80" relative="1" as="geometry">
            <mxPoint x="110" as="sourcePoint" />
            <mxPoint x="110" y="90" as="targetPoint" />
            <Array as="points" />
          </mxGeometry>
        </mxCell>
        <mxCell id="cYiCLH4inrJGbYnhFq96-309" value="" style="edgeStyle=none;orthogonalLoop=1;jettySize=auto;html=1;rounded=0;endArrow=none;endFill=0;strokeWidth=4;" edge="1" parent="cYiCLH4inrJGbYnhFq96-301">
          <mxGeometry width="80" relative="1" as="geometry">
            <mxPoint x="110" y="90" as="sourcePoint" />
            <mxPoint x="50" y="90" as="targetPoint" />
            <Array as="points" />
          </mxGeometry>
        </mxCell>
        <mxCell id="cYiCLH4inrJGbYnhFq96-310" value="" style="endArrow=none;html=1;strokeWidth=2;rounded=0;fillColor=#f8cecc;strokeColor=#ff0000;dashed=1;" edge="1" parent="cYiCLH4inrJGbYnhFq96-301">
          <mxGeometry width="50" height="50" relative="1" as="geometry">
            <mxPoint x="-36" y="60" as="sourcePoint" />
            <mxPoint x="144" y="60" as="targetPoint" />
          </mxGeometry>
        </mxCell>
        <mxCell id="cYiCLH4inrJGbYnhFq96-311" value="" style="group" vertex="1" connectable="0" parent="1">
          <mxGeometry x="490" y="1190" width="160" height="170" as="geometry" />
        </mxCell>
        <mxCell id="cYiCLH4inrJGbYnhFq96-312" value="" style="edgeStyle=none;orthogonalLoop=1;jettySize=auto;html=1;rounded=0;endArrow=none;endFill=0;strokeWidth=4;" edge="1" parent="cYiCLH4inrJGbYnhFq96-311">
          <mxGeometry width="80" relative="1" as="geometry">
            <mxPoint as="sourcePoint" />
            <mxPoint y="170" as="targetPoint" />
            <Array as="points" />
          </mxGeometry>
        </mxCell>
        <mxCell id="cYiCLH4inrJGbYnhFq96-313" value="" style="edgeStyle=none;orthogonalLoop=1;jettySize=auto;html=1;rounded=0;endArrow=none;endFill=0;strokeWidth=4;" edge="1" parent="cYiCLH4inrJGbYnhFq96-311">
          <mxGeometry width="80" relative="1" as="geometry">
            <mxPoint x="160" as="sourcePoint" />
            <mxPoint x="160" y="170" as="targetPoint" />
            <Array as="points" />
          </mxGeometry>
        </mxCell>
        <mxCell id="cYiCLH4inrJGbYnhFq96-314" value="" style="edgeStyle=none;orthogonalLoop=1;jettySize=auto;html=1;rounded=0;endArrow=none;endFill=0;strokeWidth=4;" edge="1" parent="cYiCLH4inrJGbYnhFq96-311">
          <mxGeometry width="80" relative="1" as="geometry">
            <mxPoint y="170" as="sourcePoint" />
            <mxPoint x="160" y="170" as="targetPoint" />
            <Array as="points" />
          </mxGeometry>
        </mxCell>
        <mxCell id="cYiCLH4inrJGbYnhFq96-315" value="" style="edgeStyle=none;orthogonalLoop=1;jettySize=auto;html=1;rounded=0;endArrow=none;endFill=0;strokeWidth=4;" edge="1" parent="cYiCLH4inrJGbYnhFq96-311">
          <mxGeometry width="80" relative="1" as="geometry">
            <mxPoint x="50" as="sourcePoint" />
            <mxPoint as="targetPoint" />
            <Array as="points" />
          </mxGeometry>
        </mxCell>
        <mxCell id="cYiCLH4inrJGbYnhFq96-316" value="" style="edgeStyle=none;orthogonalLoop=1;jettySize=auto;html=1;rounded=0;endArrow=none;endFill=0;strokeWidth=4;" edge="1" parent="cYiCLH4inrJGbYnhFq96-311">
          <mxGeometry width="80" relative="1" as="geometry">
            <mxPoint x="160" as="sourcePoint" />
            <mxPoint x="110" as="targetPoint" />
            <Array as="points" />
          </mxGeometry>
        </mxCell>
        <mxCell id="cYiCLH4inrJGbYnhFq96-317" value="" style="edgeStyle=none;orthogonalLoop=1;jettySize=auto;html=1;rounded=0;endArrow=none;endFill=0;strokeWidth=4;" edge="1" parent="cYiCLH4inrJGbYnhFq96-311">
          <mxGeometry width="80" relative="1" as="geometry">
            <mxPoint x="50" as="sourcePoint" />
            <mxPoint x="50" y="90" as="targetPoint" />
            <Array as="points" />
          </mxGeometry>
        </mxCell>
        <mxCell id="cYiCLH4inrJGbYnhFq96-318" value="" style="edgeStyle=none;orthogonalLoop=1;jettySize=auto;html=1;rounded=0;endArrow=none;endFill=0;strokeWidth=4;" edge="1" parent="cYiCLH4inrJGbYnhFq96-311">
          <mxGeometry width="80" relative="1" as="geometry">
            <mxPoint x="110" as="sourcePoint" />
            <mxPoint x="110" y="90" as="targetPoint" />
            <Array as="points" />
          </mxGeometry>
        </mxCell>
        <mxCell id="cYiCLH4inrJGbYnhFq96-319" value="" style="edgeStyle=none;orthogonalLoop=1;jettySize=auto;html=1;rounded=0;endArrow=none;endFill=0;strokeWidth=4;" edge="1" parent="cYiCLH4inrJGbYnhFq96-311">
          <mxGeometry width="80" relative="1" as="geometry">
            <mxPoint x="110" y="90" as="sourcePoint" />
            <mxPoint x="50" y="90" as="targetPoint" />
            <Array as="points" />
          </mxGeometry>
        </mxCell>
        <mxCell id="cYiCLH4inrJGbYnhFq96-320" value="" style="endArrow=none;html=1;strokeWidth=2;rounded=0;fillColor=#f8cecc;strokeColor=#ff0000;dashed=1;" edge="1" parent="cYiCLH4inrJGbYnhFq96-311">
          <mxGeometry width="50" height="50" relative="1" as="geometry">
            <mxPoint x="79.38" y="30" as="sourcePoint" />
            <mxPoint x="79.38" y="210" as="targetPoint" />
          </mxGeometry>
        </mxCell>
        <mxCell id="cYiCLH4inrJGbYnhFq96-321" value="" style="group" vertex="1" connectable="0" parent="1">
          <mxGeometry x="700" y="1190" width="160" height="170" as="geometry" />
        </mxCell>
        <mxCell id="cYiCLH4inrJGbYnhFq96-322" value="" style="edgeStyle=none;orthogonalLoop=1;jettySize=auto;html=1;rounded=0;endArrow=none;endFill=0;strokeWidth=4;" edge="1" parent="cYiCLH4inrJGbYnhFq96-321">
          <mxGeometry width="80" relative="1" as="geometry">
            <mxPoint as="sourcePoint" />
            <mxPoint y="170" as="targetPoint" />
            <Array as="points" />
          </mxGeometry>
        </mxCell>
        <mxCell id="cYiCLH4inrJGbYnhFq96-323" value="" style="edgeStyle=none;orthogonalLoop=1;jettySize=auto;html=1;rounded=0;endArrow=none;endFill=0;strokeWidth=4;" edge="1" parent="cYiCLH4inrJGbYnhFq96-321">
          <mxGeometry width="80" relative="1" as="geometry">
            <mxPoint x="160" as="sourcePoint" />
            <mxPoint x="160" y="170" as="targetPoint" />
            <Array as="points" />
          </mxGeometry>
        </mxCell>
        <mxCell id="cYiCLH4inrJGbYnhFq96-324" value="" style="edgeStyle=none;orthogonalLoop=1;jettySize=auto;html=1;rounded=0;endArrow=none;endFill=0;strokeWidth=4;" edge="1" parent="cYiCLH4inrJGbYnhFq96-321">
          <mxGeometry width="80" relative="1" as="geometry">
            <mxPoint y="170" as="sourcePoint" />
            <mxPoint x="160" y="170" as="targetPoint" />
            <Array as="points" />
          </mxGeometry>
        </mxCell>
        <mxCell id="cYiCLH4inrJGbYnhFq96-325" value="" style="edgeStyle=none;orthogonalLoop=1;jettySize=auto;html=1;rounded=0;endArrow=none;endFill=0;strokeWidth=4;" edge="1" parent="cYiCLH4inrJGbYnhFq96-321">
          <mxGeometry width="80" relative="1" as="geometry">
            <mxPoint x="50" as="sourcePoint" />
            <mxPoint as="targetPoint" />
            <Array as="points" />
          </mxGeometry>
        </mxCell>
        <mxCell id="cYiCLH4inrJGbYnhFq96-326" value="" style="edgeStyle=none;orthogonalLoop=1;jettySize=auto;html=1;rounded=0;endArrow=none;endFill=0;strokeWidth=4;" edge="1" parent="cYiCLH4inrJGbYnhFq96-321">
          <mxGeometry width="80" relative="1" as="geometry">
            <mxPoint x="160" as="sourcePoint" />
            <mxPoint x="110" as="targetPoint" />
            <Array as="points" />
          </mxGeometry>
        </mxCell>
        <mxCell id="cYiCLH4inrJGbYnhFq96-327" value="" style="edgeStyle=none;orthogonalLoop=1;jettySize=auto;html=1;rounded=0;endArrow=none;endFill=0;strokeWidth=4;" edge="1" parent="cYiCLH4inrJGbYnhFq96-321">
          <mxGeometry width="80" relative="1" as="geometry">
            <mxPoint x="50" as="sourcePoint" />
            <mxPoint x="50" y="90" as="targetPoint" />
            <Array as="points" />
          </mxGeometry>
        </mxCell>
        <mxCell id="cYiCLH4inrJGbYnhFq96-328" value="" style="edgeStyle=none;orthogonalLoop=1;jettySize=auto;html=1;rounded=0;endArrow=none;endFill=0;strokeWidth=4;" edge="1" parent="cYiCLH4inrJGbYnhFq96-321">
          <mxGeometry width="80" relative="1" as="geometry">
            <mxPoint x="110" as="sourcePoint" />
            <mxPoint x="110" y="90" as="targetPoint" />
            <Array as="points" />
          </mxGeometry>
        </mxCell>
        <mxCell id="cYiCLH4inrJGbYnhFq96-329" value="" style="edgeStyle=none;orthogonalLoop=1;jettySize=auto;html=1;rounded=0;endArrow=none;endFill=0;strokeWidth=4;" edge="1" parent="cYiCLH4inrJGbYnhFq96-321">
          <mxGeometry width="80" relative="1" as="geometry">
            <mxPoint x="110" y="90" as="sourcePoint" />
            <mxPoint x="50" y="90" as="targetPoint" />
            <Array as="points" />
          </mxGeometry>
        </mxCell>
        <mxCell id="cYiCLH4inrJGbYnhFq96-330" value="" style="endArrow=none;html=1;strokeWidth=2;rounded=0;fillColor=#f8cecc;strokeColor=#ff0000;dashed=1;" edge="1" parent="cYiCLH4inrJGbYnhFq96-321">
          <mxGeometry width="50" height="50" relative="1" as="geometry">
            <mxPoint x="-25" y="70" as="sourcePoint" />
            <mxPoint x="185" y="70" as="targetPoint" />
          </mxGeometry>
        </mxCell>
        <mxCell id="cYiCLH4inrJGbYnhFq96-332" value="" style="group" vertex="1" connectable="0" parent="1">
          <mxGeometry x="930" y="1190" width="160" height="170" as="geometry" />
        </mxCell>
        <mxCell id="cYiCLH4inrJGbYnhFq96-333" value="" style="edgeStyle=none;orthogonalLoop=1;jettySize=auto;html=1;rounded=0;endArrow=none;endFill=0;strokeWidth=4;" edge="1" parent="cYiCLH4inrJGbYnhFq96-332">
          <mxGeometry width="80" relative="1" as="geometry">
            <mxPoint as="sourcePoint" />
            <mxPoint y="170" as="targetPoint" />
            <Array as="points" />
          </mxGeometry>
        </mxCell>
        <mxCell id="cYiCLH4inrJGbYnhFq96-334" value="" style="edgeStyle=none;orthogonalLoop=1;jettySize=auto;html=1;rounded=0;endArrow=none;endFill=0;strokeWidth=4;" edge="1" parent="cYiCLH4inrJGbYnhFq96-332">
          <mxGeometry width="80" relative="1" as="geometry">
            <mxPoint x="160" as="sourcePoint" />
            <mxPoint x="160" y="170" as="targetPoint" />
            <Array as="points" />
          </mxGeometry>
        </mxCell>
        <mxCell id="cYiCLH4inrJGbYnhFq96-335" value="" style="edgeStyle=none;orthogonalLoop=1;jettySize=auto;html=1;rounded=0;endArrow=none;endFill=0;strokeWidth=4;" edge="1" parent="cYiCLH4inrJGbYnhFq96-332">
          <mxGeometry width="80" relative="1" as="geometry">
            <mxPoint y="170" as="sourcePoint" />
            <mxPoint x="160" y="170" as="targetPoint" />
            <Array as="points" />
          </mxGeometry>
        </mxCell>
        <mxCell id="cYiCLH4inrJGbYnhFq96-336" value="" style="edgeStyle=none;orthogonalLoop=1;jettySize=auto;html=1;rounded=0;endArrow=none;endFill=0;strokeWidth=4;" edge="1" parent="cYiCLH4inrJGbYnhFq96-332">
          <mxGeometry width="80" relative="1" as="geometry">
            <mxPoint x="50" as="sourcePoint" />
            <mxPoint as="targetPoint" />
            <Array as="points" />
          </mxGeometry>
        </mxCell>
        <mxCell id="cYiCLH4inrJGbYnhFq96-337" value="" style="edgeStyle=none;orthogonalLoop=1;jettySize=auto;html=1;rounded=0;endArrow=none;endFill=0;strokeWidth=4;" edge="1" parent="cYiCLH4inrJGbYnhFq96-332">
          <mxGeometry width="80" relative="1" as="geometry">
            <mxPoint x="160" as="sourcePoint" />
            <mxPoint x="110" as="targetPoint" />
            <Array as="points" />
          </mxGeometry>
        </mxCell>
        <mxCell id="cYiCLH4inrJGbYnhFq96-338" value="" style="edgeStyle=none;orthogonalLoop=1;jettySize=auto;html=1;rounded=0;endArrow=none;endFill=0;strokeWidth=4;" edge="1" parent="cYiCLH4inrJGbYnhFq96-332">
          <mxGeometry width="80" relative="1" as="geometry">
            <mxPoint x="50" as="sourcePoint" />
            <mxPoint x="50" y="90" as="targetPoint" />
            <Array as="points" />
          </mxGeometry>
        </mxCell>
        <mxCell id="cYiCLH4inrJGbYnhFq96-339" value="" style="edgeStyle=none;orthogonalLoop=1;jettySize=auto;html=1;rounded=0;endArrow=none;endFill=0;strokeWidth=4;" edge="1" parent="cYiCLH4inrJGbYnhFq96-332">
          <mxGeometry width="80" relative="1" as="geometry">
            <mxPoint x="110" as="sourcePoint" />
            <mxPoint x="110" y="90" as="targetPoint" />
            <Array as="points" />
          </mxGeometry>
        </mxCell>
        <mxCell id="cYiCLH4inrJGbYnhFq96-340" value="" style="edgeStyle=none;orthogonalLoop=1;jettySize=auto;html=1;rounded=0;endArrow=none;endFill=0;strokeWidth=4;" edge="1" parent="cYiCLH4inrJGbYnhFq96-332">
          <mxGeometry width="80" relative="1" as="geometry">
            <mxPoint x="110" y="90" as="sourcePoint" />
            <mxPoint x="50" y="90" as="targetPoint" />
            <Array as="points" />
          </mxGeometry>
        </mxCell>
        <mxCell id="cYiCLH4inrJGbYnhFq96-341" value="" style="endArrow=none;html=1;strokeWidth=2;rounded=0;fillColor=#f8cecc;strokeColor=#ff0000;dashed=1;" edge="1" parent="cYiCLH4inrJGbYnhFq96-332">
          <mxGeometry width="50" height="50" relative="1" as="geometry">
            <mxPoint x="10" y="-30" as="sourcePoint" />
            <mxPoint x="150" y="190" as="targetPoint" />
          </mxGeometry>
        </mxCell>
        <mxCell id="cYiCLH4inrJGbYnhFq96-371" value="" style="shape=stencil(lVpLch03DDyNtizwD64d5x6ushypokguWc7n9gHzitSw+aZftJPlaZEAGkADM3fx04+HL9/v74L8eHt9+f3+r8evbw938Ze7EB6fH+5fH9/sp7v4+S5++vbyev/b68vP56+Xf3//0p/sP/3x8mf/C39fcD44bR0V5J/Lb5IL8t8vfr08//T4vD7f1uebS4k8H11Iy/NeXeaA4hdAUJfYjaJrYQHE6CI7Ibm6AlJwORBAdlpXQHPKrlSd5AWQs0uFANSV9UrFU0CQEaUJqNTo4NGtNdJAh+DqakNVp5EAoksrMzS5xk5Iw+uTSuJSJl4qyFVVF5WeEFejtbrszwHRu6oISIQaycJUN0A7B+TNrQYo5IRiYYobgMShiqsNASzSpW1eCi5UAjAT1yvV4hoDZOeBS0K9VIKL6wnmBk8induVjMvkSj0h1wRK6jxJoOydrl6y2Gdig/098FLMrpArpTy8PgHiMom0la24JlCwSkWqRlT0km+uEGrENGr1BGQXSYqmOP7eBERaBAwARcCuFEiKpr0/1MGu64DkZAXE4IRdKWECRV5bLXBtdatdUljVqGi0kYVSow2vT3oneoKxFeid1VXi1jyZMzPO2MozDvuDULdaTvu1tvacJlcqs/ROGwotldW0yXqC+S2QFK115NdBCQgBqGA+RJ5xuhltOV0Jl3TTV5bTgdC7A6AIiIvMaOMSpGhyhV1JRyU95DRzq7VxXY22nE6kkGkbVJs2zFZ/BvBQKgPtcQYQKMaVks8AGcq9dW4S6eaxi1qWM2o000ur0V0bMLdmtKF3PWJ02+pSSVQ6tIJqpswsPwMUUAKJKoFWkd6VKzID6Jpxxt9M6pJdqYJe8vyEtCkyq0vMrZbTcEJy/gZbEwIKy+niRBHApiy7cVC0gXnJfAJc6pWKBO7d6xMgtCkaQNaGYvNDJG7tJ2yqklY+QXob+RLL6YhVo3cMYrRuCWQAYW6dCTkBfvD3jEsICCOUZ2wtcKU4tPJpihb0ElNkPeM8xoENfk03G/TWCTC89lDyQoajZaBKwGorkM9izxqKtSwPgETnB5up9hSlGZe2E0wZs6Zos6hsRvPG3srmVnIlA/hVOvTA8RM+CKhYjI3ekaRo7wYf2msYN/NKjSK07dYppw5SmhUByy9Zq3dqtKHUubo5jAON2SAYuFh44Kx6g/yxHseM9qhmTFVWZnTAtV3fODGjIw5NJhKFnVAwRfkOwcgPsyvf8lkJUBA/dL63OgkrBy90ydcaFtY+GxMXeREslIEvvNrWdM0I1kOtFMOixXRxYydk1GNROSAMITLJXaha6hu31U19dGWB9jjFlbl6OWMSbASKUnlV55B3aInCJtGyqdZGbTBhjnrM8/F7Y3ev5qTDmdehO9Qbm5kw0uWg7VlL7EsPwTjcWBY1mE/mPHEdEHDsyzKS9jpAsDukxHfSimrJ6M2SOpg0WTtcjHTG6gm5raMqu1LGVb9XGodet2BpF+jisb+RgQTicVNMhzhekJxRD1dFY2t+nduCS3XP5V7O2HH75p+lW912IPz1SdcIACh0pVHiaE6HjkvX9hV5YfnEBKW1aL9xmyqfjFTNfHlVtx25uYEtEXXfwvOXG/2FzzZrsN2sVlwtqefdZH9XkWkF0Ib96n07dTbzQWF9nz7O2g8Ie+vCbFi37gSV2Po8myqz4osBA0RC71RRH7ZZE66XgDJWhgdAIf3KCmvYAYTepnQqqCXh+2LTj7DCtiM827XidG+BY69PCqa0MYPtQc1HwNVMt2l5iP5DS1eSbnkI7EPysBgk9E+Z49n1IG/PmzZkMR7vVg/tPLPXs9hre+En/tm2xIm3WsF3INaaGeUE13RBaQUWXImFSJNmU/M3vmwQHDz5lxObufzDDMHtWaQ7yW2CnAPfyePQYD39JmNbvwhXFMhMoZfZXlXxQlKRx/xxxYUzv4xpGY9/ntnqt/cE3JU+YFm7EakwBo3/SYSPfwB043n74f1ro2+PT0+Xj5WO/49fJ9mvLl82xc//Ag==);lineShape=1;strokeColor=#FF0000;" vertex="1" parent="1">
          <mxGeometry x="50.198615246902364" y="1197.8351466072054" width="34.76816652143589" height="51.50472892718062" as="geometry" />
        </mxCell>
        <mxCell id="cYiCLH4inrJGbYnhFq96-372" value="" style="shape=stencil(lVlJbhwxDHzNXAlRFLWcs/zDQJx4EMcOHGf7fagM1BlR3TXIbdwWWyJZLBbVJ3nz7eHu6/0phm+vL8+f73+eP7w+nOTtKcbz08P9y/nVfp3k3UnefHx+uf/08vz96cPl7693fWX/9eX5R3/Dr4sdFyrSrWL4fXlSKKa/D95f1j+en+b1tU3rOVGrwKCSzhvERCkAg0apTgaiFPKxQQyU5x2SUAFHikxaJgONFAowiFRmgxyoMjBIxHmOaqCkwECphNmgEYMoWZo4TQa1kIIjcabmDCIOqx0gzkeyPUGUElPV2SCRxmMDTRTmTJdICYAvK4mLEsPEFR3vu8oDOpIZxBnepY4n+wa8RAlDI9v7HJaEWKDTiWe0JsrAh2xonQ1SJgXgMzDHOazSIDQ0exLoYAE+2Il5droXLQhrSj5KEZeoRNK54qykBNV0JpnRaq/IiDUyhdlpo5mGd3B5UKEKalqKz4Py2HM/SkptBp9lOqI8CIkzCBDeqsPFzaBSA/A2aLg8aBlFu+9DGcR4BW8FYe1YUh/WCHbQSml22ui+oYozLFW/Q0G8lIlnaFjcYMVVqq4DVWIAPiMVh9bMJOBIvd/MechptJj9IzUPvlwGuo6c9i3Laho5bWlyVGkVh7C0kcpmIJRRphPV5A1QU1Tj6uVIAnzoaK3eaaSXrEQd81lYkfwx5nONPW9PjgzSDD7jcyR/jCPYwbtgMrZu4CpOB+D3wxrHAa4KSBEvmThxBWQlitDKg+eudkCJsy4aXMWlIVeOSpSDjxLiVgNCCD4PEezQpcgcJasQBYmzEvUy1BoxMrC8OhJoWJwYluYdChaJ5qIuJSoAGt1gKVFk0MHnjqSwHqR6MrYdInBaeOFWPD9I8ERm+IVivY1ucNWnEd13A6fItlQe+dBmg1ipAPY2sd5m8JnAQmjt5bIoMjT4GZZy8UdCfdqktMwGNvihocnGi+aErkDNZzu4AuqKDDX25AWW9aSKlLGOBrVhSTEZi5fSRgsF0IwsUSpY/vDCGlbTCBpsbdx1oIbBR83VT4Q+sxehRvaoQIPHdhfewOMwUnSFI6QzeJk18CgtvnQsxKj39IDOB+I4riyO7hucxxmWmmw6aovQ6EX7oIt+yuUxqhyNDe48Ab6/lz779aiQxdOdjX9IDS+DEvMQEPsGzUO0gxB4XIXC7IFsVbFvsKhhY1jU1+raExoUhi0ut1YF3gO0ZRTregAxRVgkTMmQgVvxI2615oziql4vWBwa4BaDRpmh2gLstcY9bjw0g4rEKo+wbwZxwHG/2ppPddta3ZFecHdElpoKMtcZzOE74Iprvk+1Oua/Iwpb0oAEuvibuspQDLOvN+s5KGs8VOZVC0E4Cn4MM4piENHgCS8lONwuhSAK4xOW+60ER6rg7yVv3KIHLyvwLX3wc7DCfsN+EEkw+NbdHZliieMvbRlfRPihPwws7TPKulwB8Hm567yxPq7r0XEsj0H+w1tWH/sb2in74ONccfG3Azeg8P/fg26stx//Pj59PD8+Xr5dXf/ff6yyR5cPXfLuDw==);lineShape=1;strokeColor=#FF0000;" vertex="1" parent="1">
          <mxGeometry x="276.25658701505756" y="1191.732530290326" width="46.30094032197837" height="58.9556656112909" as="geometry" />
        </mxCell>
        <mxCell id="cYiCLH4inrJGbYnhFq96-373" value="" style="shape=stencil(rVvbbh03DPwavwq6S3xO2/8IEKcxmsaBk97+vqMaWh+Nzs4WRd9Sd2ldSA5nKPohvfv26f3Xx4fov31/ef7l8Y+nD98/PaQfHmJ8+vLp8eXpO/71kH58SO8+Pr88/vzy/NuXD6///fX9+HL869fn38dv+PPVLgbXbVhF/9frT4rL7Z8f/PT6/eenL+v3FpbvzeUsvo/Op+X7EF2P0iCQQXVR7QgGdTUwZxcGZTGIyfWqDeJq0Fz32mC9pBRc07dEK6TiysUZ2mpg8ydnBjEvBjm6qv2QyKC4nqRBXq819ytP9/XQJbukVkgu9tUAwaccB7+ut1Tz3OR9g+zKGkvV5k/uGxT2Q8v6WnGJa2g0c1EZVJf9YtCjjtbm8ppAHWuKQyPU6rqlnmUCIRBa5RWUH0pzkQyq83ZuULvzgQ1KPzdowIjNoIoz9MCxhEMrP+DW+Za8K+Jae5obODyNexNn6AcKHQZ+gvPZlmxN0dom2t6/pezaGhr1CMf7fmiubAZVedpcz2yQBPKVAxhvUrSKM+Q0MeIwSLNinIV3Wx1XvU6gPqP/gJnmmsLWxMhX0vTMXQMUqLoiXzZZdQP8sIJAzjMHzwwogVAf5Jaaq6sfRgUS1xo65wNqXBfhParyegZctAo+UI2yrjDQVhkk59cEwq+QcF8YNXANWYFxc2lFjZDnmvcNjME4+Hmq+9HqXSIQ0HU9MZnpki0Nt63fh+D8RejRkTVDhAEh61hTXOowWPNtcA+9QiU/V1mwsAE6Q4oSM6Kf5ekwaPPeTunVugJwKurQy+uhAQEKu0ckrekDtqRQKaX5v29wT2VD6vPWb7DbRHCDQdp6SyhYJnhxPrLrpiQqkEF1IKAEW1KYUQoDJapqE1sq3TXKnzpJ4/2SCGhfM9oAMorLmEukmLJMUXCZSiukedH3DYzDuwNrFZfxLno+dBChgRXS6gdwDwWUg+qsZ8CvCKL+DMa3bqn1qevOmEbrbBBVLCXWWNiS4jIosaQeGuBf3FI5CuCNGIiK/JTNIEjyM6J1NQBDM7WltJGfrHO6syirIL6irAPnSDINz4hoBREhbC11co8zAtc3eqUSCMhHBsBWdWhUA/J01gUFBlSlxzWosh45p/NR6M/OQHCPChRExqXsAhkk7YfEIADukTU1idQ3ActUbKm6tsbSYMparxsZeM34AuMSuIEyABOIa/CFdEVOKB8CfC+uFSsQ3INgKSADL6YUBUX0ijoEjlabnjxtaqzfd5nRcRN9XQrdETb8ver7IBeM968IJSKbWpS4IFV8ABjW2QVFpULdeo5R9rqwAscddIDCsLTR7iJpN8QUkWIYyG5aZxE6+qbKAAy0bwYq2SI3NILuHiB5ORWKjOw74iRPHXuanbSlKLeEFfwqc0do6OwkfTWCT2Ub5NR6raY1aOLKcKGKqyuZvi+qtWyTnf677B/KiPevoiJl7scM+FILbP2YAZD/q0Hj1gRAXhE31OJMTwigJErIpEk1bwqVyn/wCerHDOGuVjAOIzg+KSETGLWBy0GAXokzFw+DPEXs2Qp0aFy0Kbbq2SAHSUlgQN30XKSnYUBiDPxVZecbczy4ZJDaarT+1nQruv1RjzbyYdBlu3E0eVc/VN1Iu9PFzZJ8QoyRTq9N1pK2MQboknhxBlJvRQbfeIdZb2k8gyhPV6a3Q4EqXdI4gXqWXaXBGghYL2UGhQYUqGoG5v2Wsuwq7Wdo+vG0ZOb0cJx6NxmRsylQ1Rlru+P002YPLAJwBoUavTPcI5ZUg8USPwCPdoXYkhXuE8PTSkVbZl2CTapuuh2a+aaFo/yA30edaGsyH3Ct1Ik2zTPgOHrPDd7PnstpbAReQuk9AB1Bn1WN92kbJkjSc6iKTJa6lNFDx1N7T78hoLIzXQqyNZa2LbUqCRxwhuQSEkK1xlDHO+G9bgWMN2Zq5AZJZ0BebCty6uXxTVocBl6/IgSWZDlLVdy5AqUuy26ZB7zp8KsiujUDh+pVOoAFH9RQE17220NRl81Gz+1PSCWFw55R9XhoOjkuj1pMaXYfv/j2o9QYQwfS7mVEx4MczO+9bN3uGkMjV96GlLwcLAFpJCqsS9QgmTQmIitUbtwjNfnGANQiDQYBo+YlRjKt/g1Vhs+4IaoGpl1gjCnxokXStymrqkO0MjVPXva10lafkp4f2gnbEDACSEfXhmaggn5zyzwZAwGj6j4OzbhoWkh6Tp0hYBSHrFzQgO3qZbIkvta38Z37POEQdTeKRz17oN4R/yoaHPuWzzBQD43dZsfyMDA5ewOiQhN7VcsL69ugi35Cs238AaJJbemGnt0wC6WGsUTYuEsR1wSOSUqyF1nVbHu17poSmueuhOkWAJh4Wc9gerxnF7cwUN1h+Iliw/RTPfIlkUGUngOHJFfDQILrbqBxJm5JPR6hdaOURiZMDwOEyAyvVz1AtE3rwJVqciVsHe5msooGz+8ALWuW6nkYoJqsWeEgsTedlaqkJzNzwIwi2sY8CYJdtas2zLgYqR0HWJ1wMbQbPOPexVjwMKBRGj14HLYm4MVo8zCgKq07DPsKF+PZYRt/uBgAD1vRvRgxHytsfEyOZfntQUl3esYrxHpLeg4/bC3uiykuvz1Yy4o7WvKRvlfCfAhCEmx6ejBypzfJ0hYy088kITgURlTNuOFPGta9+L5vr+16P8Z9Nn3e6Pn5T99n3Jr52l9xa+PpePgPf1dy8T3+8fZHLB+fPn9+/RuY2//Pf/SCH73+wUz68W8=);lineShape=1;strokeColor=#FF0000;" vertex="1" parent="1">
          <mxGeometry x="499.1404448899127" y="1207.6636749574009" width="64.04606123817871" height="152.27818886296882" as="geometry" />
        </mxCell>
        <mxCell id="cYiCLH4inrJGbYnhFq96-374" value="" style="shape=stencil(nVnbchs3DP0avWJIgNfnNP2PzMSpNXXtjOO2yd/3bFWul6B01HbGD7J2IeJ6cACe7MO3x09fH04avr29vvz68Of589vjyX46qZ6fHx9ez2/4dLKPJ/vw5eX14ZfXl9+fP1/+//ppe3P79NvLH9svfL/IpSAQ2f7Cj8s3VUL/+4ufL+8/nZ/n921+PxaJhQq0OAlok8oEomidBKxLqERApcwqpSqt3RbIWcwmgRylhNsCpYjNKmWTRGyoUSzMKiWJ5IQKG2aVLIkRGyrcmma3ZqkkcCUMBXYBlUzcmoO3QYsoUSkV71arUjIRyBKyD1yPVMDZkKsk4tYt0vMJBZFmXkqis1tzkc5So4l2b4MRG7ZcKrOX2iip6wLwkkvvIjXRE5xK8FIm2QobSpu9lKUxlXaM2E/IosxolRC8DYWXqK+HJokYndqI6y4QJZPkA6i0+QSkdyBGa/c2qEkkuQQFLHmVKqk4Q4k6o6EkEYBKaRaAG/75iVsCcY50bjQOEND5BMS+Ei+ZDejd+0nmgUOqzfVQK8el4nGpJunEBtR0mdEb4EkF2ni8Gw03MLg33+O2kiLJV/G4LCeQAmrmk29rAMRLrQxg3AXQspgA6msuoMphpqEeZhtaoECGE8JcD7CqES+1PCp4FwAYkzi06JsilGQqIdVcLvVA6wF9OkUvQPtD9dgKlZgNxQYV2QUqFwiLQKZcIy9A1nhTBEZ0V0AIJSugIHkpUVYPMNoBGRgUI4lwa5pVQgExXELgHPKhRCuBSqRGWAQa8dLmxDn5UKJK4oAw+RIFI2MFtCfCAVsZb91KdC6gigbAS9RXnEpluFQkz4GDVZ15yXwccGYhcWh7k/2XAkgER0N7HqTuenpX0dnojhMYDTXfH2IIo6ZuUQEHfb1TcI3dMywYwXSKYfzeAWciOcFGmA6RjuQAcBOHAUkCfd+BDDhlJRAQxox3oJRsFgieRoN3M+oTx5R6GE4ot/IAs3EnNsxInv2PEBorBOlzliKC7P1Y/VicRp7fZJ9u7h4N/tYU7eosDfp6k6HPRdDp4qDs+bsbnGjnBLZ5vq3SGNotLMx0+OyqQI/D47vJSgelDvqhc5IqXX4ccOEwgLIwA3ryQlYTybu+Pz5gfCCBw2M3KbVExxLMk24sQSNizTmnsYk4NAV2QlpOgJIMLFL0M/H7xuV6NVTPDLd9CIPH4ut52xERow1wNQskviOy6gt0m1jZYkyXhYzdi4PDSICIsUg33wkjB2H0DJ1VAup1PjSUZanEhuieBkvbvVQoDUON+qUSp8N9XSqlu7DhZmLlcwx6wxxp1DTlnmkMg4eZmKm07Vccq+L1kK4SPULpLS0CAB5CJZGb2S0ClKZG7J4jYSpgHSW2QVgOaMyYIQSyw/tACbcGT/S0Ui8hmd14uBUQB4HojB6j0/WS1rGCfe/qbDMB7E7+/XanObjFBGWFqAWnT1Sa2uhvnldBgJXn0q4Ak7Qhdu9S63Td05dZMvGNLDDJJ16hu3dMLA6Ikdqd1DPC0GajMdUwo7e9tWMBSodPJJIfDQOdkqyNFn4k9Kx4mmf0aLnMS6i2tFzLUADoo/0dIs1uinS57LpzFwWB6uqZ33bpctvFr9O2scQ1H3rtg/fd2GCUWeGxywsdNyLX319Id6R7SV22JGEg4K19sruQuTs4u+q/8775FQnXB2Qi2H+w13b8P/iT4Xv3UMHjZd2zSJ4P/+P69s77+PB+V/zl/PR0uWo+Pvd3y/jqci9tH/8C);lineShape=1;strokeColor=#ff0000;" vertex="1" parent="1">
          <mxGeometry x="703.0331583884986" y="1201.0652024240799" width="40.85377735751558" height="55.47961058457804" as="geometry" />
        </mxCell>
        <mxCell id="cYiCLH4inrJGbYnhFq96-375" value="" style="shape=stencil(nVvJkhVHDPyauVbUvpyx/R9EAGbCGAjA2987y+Pq9yr1Otv4BgOaWiSlUqnqp/Tq6/vXn98+Rf/125dPv7z94/nNt/dP6YenGJ8/vn/75fkb/vSUfnxKr959+vL25y+ffvv45uXvn1/P/zn/9Oun3+dv+PPFrng3/LSK/q+Xn8Tkcv7nJz+9GHx4/rgbtLEbNDe0wUibQQquBmEQnG+7QXHRS4NQdoPuRtEG+xlydF2vEMNuUF3t0iDFzQDXkIc0KPuhS3ahSYNBBs1V5Yfoyu6Hevj+sQE2sIdGvTh0dXE/dMM1VGHQXSaD4rzYUoUf+m7QXRS3lIeL+6Hb0NGKHXuzJRWtxYX9DLW7plZoK5gPA6wQhcHg4MM1BHVL3vU9vLFmEH6okROoJBdFtMJg7Aa46CL8UBMfGgnkRSxhBU8rAHj0LfV9hVQ1kFVOoBTlGXAndTeIXWbc7U4Og6wN8M8Exji02FIyoRGaK2IFHDGRQZbRGqtLnVdISRjg9+0ZF4/oemwQXSt8rVFtKbi+bwkFRR0aBv9G/2GQXVdb8q5Syeoy42CQdk/nIDMOBpEqUHVdeHoGwr4l4LlXfgCQ5d0AK6gtoaAQkAWXBfLBcYVwqSxu8NggsR8qwFhtKblBcJ8WmXhsACTdD92aLOwI77hvqR8F4LEBUp4MyqqrZxnn9zN0VD2BfMhpv68wEN7ilrIBARhEBZXF5cJbUrgEMO50aI0a8CtFa/cuiEPPIkt1uizgeWzQmSQ274o2SHvGzWgVZ2iVyQnqqvJDi4aRAc8FzGDHncougk8YgFlUQo0mVwBhowqUk/Z0XtT8QL6x7u0/hka6pnCErQfanhV2yrh4eOaMVRIjm0iliG7lQ4ehGRkucV8hpFWTzlKUbil4SbDgprIbAMfUjgDV+/8vsiQWU07G4oxn/58YIk6sFpigtEde6LKJy30BxF0jqpoHhD6VUGBzEXeEClt2r6UkoTsXZrmgAVEbEG9AX1nVlgpjzOwrVT9TmGjAM1HdUlld5B21z2qF7IppHhQHhQExdaR4E6CE2B57kQYSqyI9V6DOdUgaAAPqNsAbFPeBQTe8IelYqqbAdYVikRO0J2mAYkOgBKKhIAD5kPdDd00pYeAHb0n1ZEjRTEUaKwiGmAfXXNRIFd43keTwdLtScgoFX5Rbmn4w4Z3VCmk1I/fEW0FrYsdlfUvTgKp60GCc+Azp8P2ZAVVEIJ8KbxyRay4YnVoBPd5+SyjSsgAZkW82LOqW/GpG7hpR1VdOgz1aUbKqUqMC19whifrUx/YdgVCqE3RzR1IHBcgRdPuFIY/p5Fhhdvv9qgdFtrPqIztK4A/hxZCt0sQrogBRam/AK+p8QpWlBytQJZmNuHDZ7NUMyVA+Rp/DK7SVS2cGFBSgt1F4GX0Jaw1ZKsVojKJh3EqcaIYbwiCpJqAxvZ0rKLEuc2QnLXSBIVBhACApT88mgKjYRSUZxg9B4/xY1fXecfoMjdJtSMW+GmYFwir9YAGjSd0K1dV7NpA9LhCr8pYUBgBjSGCJR0/6OB/Cyq+7W1Ita4+LFt35QbHDbrTopJUxbIlXSDpFB6MGwjsKEJjSQWEDhXzNaKAzRVUX3Y0GWtZo5LFBMW13lpQYPIo4NAy8UgI8j4twrV7V22HGdkFuCQZ8rVo6mAMuQ2OUElCPpva+p1TX+t0GgQV4pGhWZ4jMP2PWqJFMigLIlEhkGC7KrmxNDJ0Es1JTOJyBbmksYfcMKRuNyCT7bHnJZje1RCa0Z105+KVln1ExEnFDllNB5CcV6clWVeQ1npLPqYVyQmO5fspiakt2hbHGTacGNCBLUv6oRpNFX3JR4CjyZuejAqlz5zN7K42T9LyhRD13HEt0uusPJWQMjqXZgSoh2nNvdbu3M/4Wd0833ePCgMgSCtJQlNJM1LqX3RsM2u7pXiQS49D0HqIfI4IzjCFPj3jVgZJINNJ65fFYnAisvg/dgU6KShJOXzn40AAJydda9NwxcoqC3MgRnH2tMPRU0DOVaZpoTANaIUjlOhrdCjiiaHE0U5CZQOqWAndMpcvGfvbZBAJZFumpPFNn7GXXF81A4CY2nxkQauQom/tZ9A22DnWtmevDRG+1QmF5/GoOXx/MWRTMzHwgotHWTx4bNAYBEI2gDEzHNPStDmZjRer1yURSlNQqDZYPvByOIcwqSz5XD6iI1a8wOW1BKTl1Y9/5JdGQZLWZl3hT8lGlKnF7GLpUJltmtJjPQZRBZfVjynTKoHOpmrMxpRF5HuIk/XQPoN5ILulSv+2Fn71lPdHsjeMuVymMDc+PA7N+moHi6s1cSb0LGoXHdaVKzj066yu3NuKhQfCe5Q/EbxGAhCUCDTTymiecnToboqQoca+mohepl8z6TazES6JkmdXQDxarecA7r0G/L6H4vrvpx7BXubqNoV83dX4ZhD0pIANK5ManVi1fME9+R9BAs3Drjuwp6CvcaMDRirplLm1ABdUFJNY+mr6haB4QZJmfgVW0puXPwC19rXIsZt7g1SBz07NIhz5MNW5mPISGIAr/evO+tMrX0AZb0D8odcv8fvA1lQKeW2EUEYV2nit5CnIc5vkFypSGxf83LSF+osYSidW/UKXebup40K9vOz/vHfLXB9N76REp/pmYYJMoiopNHbB2b+6G6Hg9vszcxOOCVOWYr74De0CSu8o1/4JtNqtdZsnfJ1kzVEodujVGlTmoVsrfYDcgzZoaegaO05zkW69uDp31tc4ViHvpt1Xd9OSgUuod7Tz0fq3ARiXYzhkjEaMglQv4gV5v1SLpYCvc2tWhaflRjY78SVIrbIEB/naqM/mSeqkeZceMZmoYUUt1d9m8ruxJ6tqTtVPR9/pNj2c1cmaIQuHO7/qaHlWlZj5fGTKBUuGWEE2lIgowyKbyK2V7DpvpxU2T+ZCM1AHwlG15ZgqMxlvJNdPAsAX1KdQ0oIe3+guzZKDy4hu2aUAjdP2VXDJPrC++w0vm6eDFl35zBeIY+lvCZHpC0FZVUGBAKToFGMWaG9OwGPQXNaZOT41VFXZvbinIOWk2QjXKrrpW+17yyqCYTzQvttS+99Cdu6OLa51qgvG0cpxVwi5C4/98yHplgD/cvpt99/zhw8tnt/f/zt/Z4kcv3+imH/8G);lineShape=1;strokeColor=#ff0000;" vertex="1" parent="1">
          <mxGeometry x="1042.9199705850895" y="1199.0421587633678" width="46.718480253283815" height="146.98677534132958" as="geometry" />
        </mxCell>
      </root>
    </mxGraphModel>
  </diagram>
</mxfile>
